<svg width="125" height="65" viewBox="0 0 125 65" fill="none" xmlns="http://www.w3.org/2000/svg">
<path d="M44.0387 41.2057C43.9307 39.7366 44.4042 38.2424 45.2183 36.8234C49.7373 28.9519 54.2065 21.0721 58.8003 13.2341C60.7026 9.97865 64.2082 8.4678 67.5891 9.13558C71.1612 9.83675 73.5287 12.3409 74.3095 16.1723C74.7083 18.1339 74.2348 19.9202 73.3044 21.573C68.777 29.5446 64.258 37.5162 59.6144 45.4127C57.3964 49.194 53.6001 50.5964 49.8121 49.411C46.1985 48.2842 44.0138 45.2458 44.0387 41.2057Z" fill="#2E2E2E"/>
<path d="M66.2834 41.1405C66.2086 39.855 66.5575 38.5028 67.2636 37.259C71.8574 29.2206 76.4097 21.1572 81.1031 13.1772C83.0221 9.91345 86.5193 8.46938 89.9418 9.12881C93.2231 9.75486 95.8481 12.4677 96.5958 15.9485C97.036 18.0019 96.5293 19.9051 95.5491 21.633C90.9719 29.6881 86.403 37.7348 81.6929 45.6981C79.6411 49.1789 75.8199 50.5478 72.2977 49.4794C68.5512 48.3442 66.2668 45.2306 66.2834 41.1405Z" fill="#2E2E2E"/>
<path d="M96.5631 49.7844C90.6651 49.7594 86.5946 43.8412 89.0618 38.3654C90.8894 34.2919 93.3815 30.5273 95.6078 26.6292C96.4136 25.2185 97.1861 25.6442 97.8424 26.7878C99.969 30.519 102.312 34.15 104.139 38.0231C106.806 43.6993 102.752 49.8262 96.5631 49.7844Z" fill="#2E2E2E"/>
<path d="M39.0296 47.3475C35.7317 50.6613 30.3903 50.6613 27.0841 47.3475L3.37576 23.5161C0.0778703 20.2022 0.0778703 14.8349 3.37576 11.5127C6.67366 8.19888 12.0151 8.19888 15.3213 11.5127L39.0379 35.3441C42.3275 38.6663 42.3275 44.0253 39.0296 47.3475Z" fill="#2E2E2E"/>
<path d="M115.819 49.788C111.151 49.788 107.371 45.99 107.371 41.2989V27.5009C107.371 22.8097 111.151 19.0117 115.819 19.0117C120.488 19.0117 124.268 22.8097 124.268 27.5009V41.3072C124.259 45.99 120.48 49.788 115.819 49.788Z" fill="#2E2E2E"/>
<path d="M115.819 17.4822C111.151 17.4822 107.371 13.6842 107.371 8.99306C107.371 4.3019 111.151 0.503906 115.819 0.503906C120.488 0.503906 124.268 4.3019 124.268 8.99306C124.259 13.6842 120.48 17.4822 115.819 17.4822Z" fill="#2E2E2E"/>
<path d="M25.4457 49.0007C25.7365 49.2928 26.0521 49.5766 26.3678 49.827H6.25648C3.29917 49.827 0.898438 47.4147 0.898438 44.4431V24.2344C1.15596 24.5599 1.43009 24.8688 1.72083 25.1693L25.4457 49.0007Z" fill="#2E2E2E"/>
<path d="M42.2859 14.536L41.505 34.6278C41.2475 34.3023 40.9734 33.9934 40.6826 33.6929L16.9577 9.86153C16.6587 9.56938 16.3513 9.28557 16.0273 9.03516H37.0192C40.0098 9.03516 42.4022 11.531 42.2859 14.536Z" fill="#2E2E2E"/>
<path d="M115.817 15.9317C119.63 15.9317 122.72 12.8261 122.72 8.99515C122.72 5.1642 119.63 2.05859 115.817 2.05859C112.005 2.05859 108.914 5.1642 108.914 8.99515C108.914 12.8261 112.005 15.9317 115.817 15.9317Z" fill="white"/>
<path d="M122.29 8.99523C122.29 11.5328 120.836 13.7365 118.718 14.8133C117.837 15.2557 116.857 15.5061 115.819 15.5061C114.772 15.5061 113.792 15.2557 112.92 14.8133C110.801 13.7448 109.348 11.5411 109.348 8.99523C109.348 5.40591 112.247 2.48438 115.827 2.48438C119.391 2.48438 122.29 5.40591 122.29 8.99523Z" fill="#F3C22B"/>
<mask id="mask0_1371_45" style="mask-type:luminance" maskUnits="userSpaceOnUse" x="109" y="2" width="14" height="14">
<path d="M115.819 15.5061C119.398 15.5061 122.299 12.5911 122.299 8.99523C122.299 5.39938 119.398 2.48438 115.819 2.48438C112.241 2.48438 109.34 5.39938 109.34 8.99523C109.34 12.5911 112.241 15.5061 115.819 15.5061Z" fill="white"/>
</mask>
<g mask="url(#mask0_1371_45)">
<path d="M115.827 4.92348V4.89844C115.827 4.90678 115.827 4.90679 115.819 4.91513C115.819 4.90679 115.819 4.90678 115.811 4.89844V4.92348C114.523 8.18725 111.117 11.2006 111.117 11.2006C112.197 12.2691 112.671 13.5211 112.862 14.5145C112.878 14.6146 112.895 14.7231 112.92 14.815C112.936 14.9151 112.945 15.0153 112.953 15.1071C113.036 15.8166 112.978 16.2924 112.978 16.2924H118.66C118.66 16.2924 118.602 15.8166 118.685 15.1071C118.693 15.0153 118.702 14.9235 118.718 14.815C118.735 14.7231 118.743 14.6146 118.776 14.5145C118.976 13.5211 119.441 12.2691 120.521 11.2006C120.512 11.2006 117.115 8.18725 115.827 4.92348Z" fill="white"/>
<path d="M120.021 11.0828C119.656 10.7322 119.099 10.1729 118.459 9.45506C117.404 8.24471 116.574 7.06775 116.009 5.95757V6.65039V11.4667C116.158 11.5168 116.266 11.6253 116.341 11.7672C116.374 11.8424 116.399 11.9342 116.399 12.026C116.399 12.3516 116.142 12.6187 115.809 12.6187C115.485 12.6187 115.22 12.3599 115.22 12.026C115.22 11.9342 115.236 11.8507 115.278 11.7672C115.344 11.6253 115.461 11.5252 115.61 11.4667V5.94922C115.037 7.0594 114.223 8.23636 113.159 9.44672C112.528 10.1729 111.963 10.7405 111.598 11.0744L111.465 11.1996L111.573 11.3332C112.337 12.2013 112.86 13.3031 113.093 14.5051C113.101 14.5552 113.11 14.597 113.118 14.647C113.135 14.7472 113.143 14.8474 113.168 14.9392C113.176 15.031 113.184 15.1228 113.193 15.223C113.209 15.4734 113.218 15.6905 113.218 15.8491V16.0243H118.351V15.8491C118.351 15.6905 118.36 15.4734 118.376 15.223C118.385 15.1395 118.393 15.0477 118.401 14.9392C118.41 14.8474 118.426 14.7556 118.451 14.647C118.459 14.597 118.468 14.5552 118.476 14.5051C118.7 13.3031 119.232 12.2097 119.996 11.3332L120.104 11.1996L120.021 11.0828ZM118.036 15.3649C118.027 15.4734 118.027 15.5736 118.019 15.6654H113.608C113.608 15.5736 113.6 15.4651 113.591 15.3649C113.583 15.2814 113.583 15.198 113.575 15.1061C114.273 15.3649 115.029 15.5068 115.826 15.5068C116.624 15.5068 117.379 15.3649 118.077 15.1061C118.052 15.198 118.044 15.2814 118.036 15.3649ZM118.16 14.4467C118.135 14.5803 118.127 14.622 118.11 14.7472C117.404 15.031 116.624 15.198 115.826 15.198C115.029 15.198 114.239 14.9893 113.533 14.7138C113.517 14.5886 113.517 14.5803 113.483 14.4551C113.251 13.2531 112.736 12.1512 111.988 11.2414C112.354 10.8824 112.877 10.3566 113.442 9.70548C114.165 8.8791 114.779 8.06107 115.278 7.27643V11.2414C115.029 11.4083 114.854 11.7005 114.854 12.026C114.854 12.5519 115.278 12.9859 115.793 12.9859C116.316 12.9859 116.748 12.5602 116.748 12.026C116.748 11.7005 116.582 11.4083 116.324 11.2414V7.27643C116.831 8.06107 117.446 8.8791 118.16 9.70548C118.734 10.3649 119.249 10.8908 119.614 11.2414C118.9 12.1345 118.393 13.2447 118.16 14.4467Z" fill="black"/>
</g>
<path d="M6.30686 58.0148C6.26532 57.6308 6.08257 57.3303 5.77521 57.1216C5.45954 56.9129 5.06911 56.8044 4.59561 56.8044C4.25502 56.8044 3.96427 56.8545 3.71506 56.963C3.46585 57.0715 3.27479 57.2134 3.14188 57.3971C3.00896 57.5807 2.94251 57.7894 2.94251 58.0231C2.94251 58.2235 2.99235 58.3904 3.08373 58.5323C3.1751 58.6742 3.29971 58.7911 3.44924 58.8912C3.59876 58.9831 3.7649 59.0665 3.93935 59.1333C4.1138 59.2001 4.27994 59.2502 4.44608 59.2919L5.25186 59.5006C5.51769 59.5674 5.78351 59.6508 6.05765 59.7677C6.33178 59.8762 6.5893 60.0265 6.8302 60.2018C7.0628 60.3854 7.25386 60.6024 7.40339 60.8695C7.55291 61.1366 7.61937 61.4538 7.61937 61.8295C7.61937 62.2969 7.50307 62.7143 7.26217 63.0816C7.02126 63.4488 6.67237 63.7326 6.21548 63.9413C5.75859 64.15 5.21033 64.2585 4.56238 64.2585C3.94766 64.2585 3.4077 64.1583 2.95912 63.9664C2.51054 63.7744 2.15334 63.4906 1.90413 63.1316C1.64661 62.7727 1.50539 62.3386 1.48047 61.8378H2.72652C2.75145 62.1383 2.85113 62.3887 3.01727 62.5807C3.19172 62.7811 3.4077 62.923 3.67353 63.0231C3.93935 63.1233 4.2301 63.165 4.55407 63.165C4.90297 63.165 5.21864 63.1066 5.49277 62.9981C5.7669 62.8896 5.98288 62.731 6.14072 62.5306C6.29855 62.3303 6.38162 62.0966 6.38162 61.8211C6.38162 61.579 6.31517 61.3787 6.17395 61.2201C6.03273 61.0615 5.84997 60.9363 5.61737 60.8278C5.38478 60.7276 5.11895 60.6358 4.8199 60.5607L3.84797 60.2936C3.18341 60.1099 2.66838 59.8428 2.27794 59.4922C1.89582 59.1417 1.69645 58.6742 1.69645 58.0982C1.69645 57.6225 1.82936 57.2051 2.08688 56.8462C2.3444 56.4872 2.6933 56.2118 3.13357 56.0114C3.57384 55.8111 4.07226 55.7109 4.62053 55.7109C5.1771 55.7109 5.67552 55.8111 6.09918 56.0031C6.53115 56.2034 6.86343 56.4705 7.11264 56.8128C7.36185 57.155 7.48646 57.5473 7.50307 57.9981H6.30686V58.0148Z" fill="#2E2E2E"/>
<path d="M12.9282 61.5456V57.9062H14.1328V64.1249H12.9532V63.0482H12.8867C12.7455 63.382 12.5129 63.6575 12.2055 63.8745C11.8899 64.0916 11.5077 64.2084 11.0425 64.2084C10.6438 64.2084 10.2949 64.1166 9.98755 63.9413C9.68019 63.766 9.44759 63.4989 9.27314 63.1567C9.09869 62.8061 9.01562 62.3804 9.01562 61.8628V57.9062H10.2118V61.7126C10.2118 62.1383 10.3281 62.4722 10.5607 62.7226C10.7933 62.973 11.1007 63.0982 11.4745 63.0982C11.6988 63.0982 11.9231 63.0398 12.1474 62.9313C12.3717 62.8144 12.5544 62.6475 12.7039 62.4138C12.8535 62.1967 12.9282 61.9046 12.9282 61.5456Z" fill="#2E2E2E"/>
<path d="M18.3596 64.2516C17.7615 64.2516 17.2465 64.118 16.8145 63.8426C16.3825 63.5671 16.0502 63.1915 15.8176 62.7074C15.585 62.2232 15.4688 61.6723 15.4688 61.0463C15.4688 60.4119 15.585 59.8609 15.826 59.3685C16.0585 58.8843 16.3991 58.5087 16.8228 58.2332C17.2548 57.9578 17.7615 57.8242 18.343 57.8242C18.8165 57.8242 19.2318 57.9077 19.5973 58.083C19.9629 58.2583 20.2619 58.5003 20.4862 58.8175C20.7105 59.1347 20.8517 59.4937 20.8932 59.911H19.722C19.6555 59.6189 19.5143 59.3685 19.2817 59.1598C19.0491 58.9511 18.7417 58.8426 18.3596 58.8426C18.0273 58.8426 17.7283 58.9344 17.4791 59.1097C17.2298 59.285 17.0305 59.5354 16.8893 59.8609C16.748 60.1865 16.6816 60.5705 16.6816 61.0129C16.6816 61.4636 16.748 61.8559 16.8893 62.1898C17.0222 62.5154 17.2215 62.7741 17.4707 62.9578C17.72 63.1414 18.019 63.2249 18.3596 63.2249C18.5839 63.2249 18.7916 63.1832 18.9826 63.0997C19.1654 63.0162 19.3232 62.891 19.4561 62.7324C19.5807 62.5738 19.6721 62.3818 19.722 62.1564H20.8932C20.8517 62.5571 20.7188 62.916 20.5028 63.2332C20.2868 63.5504 19.9961 63.8008 19.6306 63.9761C19.2734 64.1598 18.8414 64.2516 18.3596 64.2516Z" fill="#2E2E2E"/>
<path d="M24.7971 64.2516C24.199 64.2516 23.684 64.118 23.252 63.8426C22.82 63.5671 22.4877 63.1915 22.2551 62.7074C22.0225 62.2232 21.9062 61.6723 21.9062 61.0463C21.9062 60.4119 22.0226 59.8609 22.2635 59.3685C22.4961 58.8843 22.8366 58.5087 23.2603 58.2332C23.6923 57.9578 24.199 57.8242 24.7805 57.8242C25.254 57.8242 25.6693 57.9077 26.0348 58.083C26.4004 58.2583 26.6994 58.5003 26.9237 58.8175C27.148 59.1347 27.2892 59.4937 27.3307 59.911H26.1595C26.093 59.6189 25.9518 59.3685 25.7192 59.1598C25.4866 58.9511 25.1792 58.8426 24.7971 58.8426C24.4648 58.8426 24.1658 58.9344 23.9166 59.1097C23.6673 59.285 23.468 59.5354 23.3268 59.8609C23.1855 60.1865 23.1191 60.5705 23.1191 61.0129C23.1191 61.4636 23.1855 61.8559 23.3268 62.1898C23.4597 62.5154 23.659 62.7741 23.9082 62.9578C24.1575 63.1414 24.4565 63.2249 24.7971 63.2249C25.0214 63.2249 25.2291 63.1832 25.4201 63.0997C25.6029 63.0162 25.7607 62.891 25.8936 62.7324C26.0182 62.5738 26.1096 62.3818 26.1595 62.1564H27.3307C27.2892 62.5571 27.1563 62.916 26.9403 63.2332C26.7243 63.5504 26.4336 63.8008 26.0681 63.9761C25.7109 64.1598 25.2872 64.2516 24.7971 64.2516Z" fill="#2E2E2E"/>
<path d="M31.304 64.2511C30.6976 64.2511 30.1659 64.1175 29.7339 63.8587C29.302 63.6 28.9531 63.2244 28.7205 62.7486C28.4879 62.2728 28.3633 61.7052 28.3633 61.0624C28.3633 60.428 28.4796 59.8604 28.7205 59.3763C28.9614 58.8921 29.2937 58.5082 29.7173 58.241C30.1493 57.9656 30.6477 57.832 31.2209 57.832C31.5698 57.832 31.9104 57.8905 32.2344 58.0073C32.5583 58.1242 32.8574 58.3078 33.1149 58.5499C33.3724 58.8003 33.5801 59.1175 33.7296 59.5182C33.8792 59.9105 33.9539 60.3946 33.9539 60.9539V61.3796H29.0362V60.4698H32.7743C32.7743 60.1526 32.7079 59.8688 32.5833 59.6183C32.4503 59.3679 32.2759 59.1759 32.0433 59.034C31.8107 58.8921 31.5366 58.817 31.2292 58.817C30.8886 58.817 30.5979 58.9005 30.3487 59.0674C30.0995 59.2344 29.9001 59.4514 29.7672 59.7185C29.6343 59.9856 29.5678 60.2694 29.5678 60.5866V61.2961C29.5678 61.7135 29.6426 62.0641 29.7838 62.3562C29.9333 62.6484 30.1327 62.8738 30.3985 63.024C30.6643 63.1743 30.9717 63.2494 31.3206 63.2494C31.5449 63.2494 31.7609 63.216 31.9436 63.1492C32.1347 63.0824 32.2925 62.9823 32.4337 62.8487C32.5666 62.7152 32.6746 62.5566 32.7494 62.3562L33.8875 62.5649C33.7961 62.8988 33.6299 63.1993 33.3973 63.4497C33.1647 63.7001 32.8657 63.9005 32.5168 64.034C32.1513 64.1843 31.7526 64.2511 31.304 64.2511Z" fill="#2E2E2E"/>
<path d="M39.9334 59.4269L38.8452 59.6189C38.8036 59.477 38.7289 59.3434 38.6292 59.2182C38.5295 59.093 38.3966 58.9845 38.2304 58.9094C38.0643 58.8259 37.8566 58.7842 37.6074 58.7842C37.2668 58.7842 36.9844 58.8593 36.7518 59.0095C36.5275 59.1598 36.4112 59.3601 36.4112 59.6022C36.4112 59.8109 36.486 59.9778 36.6438 60.103C36.7933 60.2282 37.0425 60.3367 37.3831 60.4119L38.3634 60.6372C38.9365 60.7708 39.3602 60.9711 39.6343 61.2466C39.9168 61.522 40.0497 61.881 40.0497 62.3234C40.0497 62.699 39.9417 63.0246 39.7257 63.3167C39.5097 63.6089 39.219 63.8342 38.8369 64.0012C38.4547 64.1681 38.0145 64.2516 37.516 64.2516C36.8266 64.2516 36.2617 64.1013 35.8214 63.8008C35.3811 63.5003 35.1153 63.0746 35.0156 62.5237L36.1786 62.3484C36.2534 62.6573 36.4029 62.8826 36.6272 63.0412C36.8515 63.1998 37.1505 63.275 37.5077 63.275C37.9065 63.275 38.2221 63.1915 38.4547 63.0246C38.6873 62.8576 38.8119 62.6573 38.8119 62.4152C38.8119 62.2232 38.7372 62.0563 38.596 61.9227C38.4547 61.7892 38.2304 61.689 37.9397 61.6222L36.893 61.3885C36.3115 61.2549 35.8879 61.0463 35.6137 60.7541C35.3396 60.4619 35.1984 60.103 35.1984 59.6606C35.1984 59.2933 35.2981 58.9761 35.5057 58.7007C35.7134 58.4252 35.9959 58.2082 36.3531 58.0579C36.7103 57.8993 37.1256 57.8242 37.5908 57.8242C38.2554 57.8242 38.787 57.9661 39.1691 58.2583C39.5513 58.5588 39.8088 58.9428 39.9334 59.4269Z" fill="#2E2E2E"/>
<path d="M46.0076 59.4269L44.9194 59.6189C44.8779 59.477 44.8031 59.3434 44.7034 59.2182C44.6037 59.093 44.4708 58.9845 44.3047 58.9094C44.1385 58.8259 43.9309 58.7842 43.6816 58.7842C43.3411 58.7842 43.0586 58.8593 42.826 59.0095C42.6017 59.1598 42.4854 59.3601 42.4854 59.6022C42.4854 59.8109 42.5602 59.9778 42.718 60.103C42.8675 60.2282 43.1168 60.3367 43.4573 60.4119L44.4376 60.6372C45.0108 60.7708 45.4344 60.9711 45.7086 61.2466C45.991 61.522 46.1239 61.881 46.1239 62.3234C46.1239 62.699 46.0159 63.0246 45.7999 63.3167C45.584 63.6089 45.2932 63.8342 44.9111 64.0012C44.529 64.1681 44.0887 64.2516 43.5903 64.2516C42.9008 64.2516 42.3359 64.1013 41.8956 63.8008C41.4554 63.5003 41.1895 63.0746 41.0898 62.5237L42.2528 62.3484C42.3276 62.6573 42.4771 62.8826 42.7014 63.0412C42.9257 63.1998 43.2248 63.275 43.582 63.275C43.9807 63.275 44.2964 63.1915 44.529 63.0246C44.7616 62.8576 44.8862 62.6573 44.8862 62.4152C44.8862 62.2232 44.8114 62.0563 44.6702 61.9227C44.529 61.7892 44.3047 61.689 44.0139 61.6222L42.9672 61.3885C42.3857 61.2549 41.9621 61.0463 41.688 60.7541C41.4138 60.4619 41.2726 60.103 41.2726 59.6606C41.2726 59.2933 41.3723 58.9761 41.58 58.7007C41.7876 58.4252 42.0701 58.2082 42.4273 58.0579C42.7845 57.8993 43.1998 57.8242 43.665 57.8242C44.3296 57.8242 44.8612 57.9661 45.2434 58.2583C45.6338 58.5588 45.8913 58.9428 46.0076 59.4269Z" fill="#2E2E2E"/>
<path d="M50.5508 55.8359H52.0627L54.6877 62.28H54.7874L57.4124 55.8359H58.9243V64.1248H57.7364V58.1231H57.6616L55.2276 64.1081H54.2474L51.8135 58.1147H51.7387V64.1164H50.5508V55.8359Z" fill="#2E2E2E"/>
<path d="M61.2486 56.9474C61.0409 56.9474 60.8582 56.8807 60.7087 56.7388C60.5591 56.5969 60.4844 56.4299 60.4844 56.2296C60.4844 56.0292 60.5591 55.8623 60.7087 55.7204C60.8582 55.5785 61.0409 55.5117 61.2486 55.5117C61.4563 55.5117 61.6391 55.5785 61.7886 55.7204C61.9381 55.8623 62.0129 56.0292 62.0129 56.2296C62.0129 56.4299 61.9381 56.5969 61.7886 56.7388C61.6391 56.8807 61.4563 56.9474 61.2486 56.9474ZM60.6422 64.1261V57.9074H61.8467V64.1261H60.6422Z" fill="#2E2E2E"/>
<path d="M64.6733 60.4369V64.1264H63.4688V57.9077H64.6234V58.9177H64.6982C64.8394 58.5922 65.0637 58.3251 65.3711 58.1247C65.6784 57.9244 66.0606 57.8242 66.5257 57.8242C66.9494 57.8242 67.3149 57.916 67.6306 58.0913C67.9462 58.2666 68.1955 58.5337 68.3699 58.876C68.5444 59.2266 68.6357 59.6523 68.6357 60.1698V64.1264H67.4312V60.32C67.4312 59.8693 67.3149 59.5187 67.0823 59.2599C66.8497 59.0012 66.5257 58.876 66.1187 58.876C65.8363 58.876 65.5954 58.9344 65.3794 59.0596C65.1634 59.1848 64.9889 59.3601 64.8643 59.5938C64.7314 59.8276 64.6733 60.1114 64.6733 60.4369Z" fill="#2E2E2E"/>
<path d="M72.5566 64.2494C72.0582 64.2494 71.6096 64.1242 71.2192 63.8655C70.8288 63.6067 70.5214 63.2394 70.2971 62.7636C70.0728 62.2878 69.9648 61.7119 69.9648 61.0357C69.9648 60.3596 70.0728 59.792 70.2971 59.3079C70.5214 58.8321 70.8288 58.4648 71.2192 58.2144C71.6096 57.964 72.0582 57.8304 72.5566 57.8304C72.9388 57.8304 73.2461 57.8972 73.487 58.0224C73.7196 58.1476 73.9024 58.2978 74.0353 58.4731C74.1682 58.6401 74.2679 58.7903 74.3427 58.9239H74.4174V55.8438H75.6219V64.1326H74.4423V63.1643H74.3427C74.2679 63.2978 74.1682 63.4481 74.027 63.615C73.8941 63.782 73.703 63.9322 73.4704 64.0574C73.2378 64.1827 72.9305 64.2494 72.5566 64.2494ZM72.8225 63.2144C73.1714 63.2144 73.4621 63.1225 73.703 62.9389C73.9439 62.7553 74.1267 62.4965 74.2513 62.171C74.3759 61.8454 74.4423 61.4614 74.4423 61.019C74.4423 60.585 74.3842 60.2094 74.2596 59.8838C74.135 59.5583 73.9522 59.3079 73.7196 59.1242C73.4787 58.9406 73.188 58.8571 72.8308 58.8571C72.4653 58.8571 72.1662 58.9489 71.9253 59.1409C71.6844 59.3329 71.5016 59.5917 71.377 59.9172C71.2524 60.2427 71.1943 60.61 71.1943 61.019C71.1943 61.4364 71.2524 61.812 71.377 62.1376C71.5016 62.4715 71.6844 62.7302 71.9253 62.9222C72.1662 63.1225 72.4653 63.2144 72.8225 63.2144Z" fill="#2E2E2E"/>
<path d="M81.6836 55.8359V64.1248H80.4375V55.8359H81.6836Z" fill="#2E2E2E"/>
<path d="M84.5991 60.4369V64.1264H83.3945V57.9077H84.5492V58.9177H84.624C84.7652 58.5922 84.9895 58.3251 85.2968 58.1247C85.6042 57.9244 85.9863 57.8242 86.4515 57.8242C86.8752 57.8242 87.2407 57.916 87.5564 58.0913C87.872 58.2666 88.1212 58.5337 88.2957 58.876C88.4701 59.2266 88.5615 59.6523 88.5615 60.1698V64.1264H87.357V60.32C87.357 59.8693 87.2407 59.5187 87.0081 59.2599C86.7755 59.0012 86.4515 58.876 86.0445 58.876C85.762 58.876 85.5211 58.9344 85.3052 59.0596C85.0892 59.1848 84.9147 59.3601 84.7901 59.5938C84.6655 59.8276 84.5991 60.1114 84.5991 60.4369Z" fill="#2E2E2E"/>
<path d="M94.8084 59.4269L93.7202 59.6189C93.6786 59.477 93.6039 59.3434 93.5042 59.2182C93.4045 59.093 93.2716 58.9845 93.1055 58.9094C92.9393 58.8259 92.7316 58.7842 92.4824 58.7842C92.1418 58.7842 91.8594 58.8593 91.6268 59.0095C91.4025 59.1598 91.2862 59.3601 91.2862 59.6022C91.2862 59.8109 91.361 59.9778 91.5188 60.103C91.6683 60.2282 91.9175 60.3367 92.2581 60.4119L93.2384 60.6372C93.8116 60.7708 94.2352 60.9711 94.5093 61.2466C94.7918 61.522 94.9247 61.881 94.9247 62.3234C94.9247 62.699 94.8167 63.0246 94.6007 63.3167C94.3847 63.6089 94.094 63.8342 93.7119 64.0012C93.3297 64.1681 92.8895 64.2516 92.3911 64.2516C91.7016 64.2516 91.1367 64.1013 90.6964 63.8008C90.2561 63.5003 89.9903 63.0746 89.8906 62.5237L91.0536 62.3484C91.1284 62.6573 91.2779 62.8826 91.5022 63.0412C91.7265 63.1998 92.0255 63.275 92.3827 63.275C92.7815 63.275 93.0888 63.1915 93.3297 63.0246C93.5623 62.8576 93.6869 62.6573 93.6869 62.4152C93.6869 62.2232 93.6122 62.0563 93.471 61.9227C93.3297 61.7892 93.1055 61.689 92.8147 61.6222L91.768 61.3885C91.1865 61.2549 90.7629 61.0463 90.4887 60.7541C90.2146 60.4619 90.0734 60.103 90.0734 59.6606C90.0734 59.2933 90.1731 58.9761 90.3807 58.7007C90.5884 58.4252 90.8709 58.2082 91.2281 58.0579C91.5853 57.8993 92.0006 57.8242 92.4658 57.8242C93.1304 57.8242 93.662 57.9661 94.0441 58.2583C94.4346 58.5588 94.6838 58.9428 94.8084 59.4269Z" fill="#2E2E2E"/>
<path d="M99.1388 57.9077V58.876H95.7578V57.9077H99.1388ZM96.6716 56.4219H97.8761V62.3067C97.8761 62.5404 97.9093 62.7157 97.9841 62.8326C98.0589 62.9494 98.1419 63.0329 98.2582 63.0746C98.3662 63.1164 98.4908 63.1414 98.6237 63.1414C98.7234 63.1414 98.8065 63.1331 98.8813 63.1247C98.956 63.1164 99.0142 63.0997 99.0474 63.0913L99.2634 64.093C99.1969 64.118 99.0972 64.1514 98.9643 64.1765C98.8314 64.2015 98.6736 64.2182 98.4825 64.2266C98.1668 64.2349 97.8678 64.1765 97.5937 64.0596C97.3195 63.9427 97.0952 63.7591 96.9291 63.5087C96.763 63.2583 96.6716 62.9494 96.6716 62.5738V56.4219Z" fill="#2E2E2E"/>
<path d="M101.081 56.9474C100.873 56.9474 100.69 56.8807 100.541 56.7388C100.391 56.5969 100.316 56.4299 100.316 56.2296C100.316 56.0292 100.391 55.8623 100.541 55.7204C100.69 55.5785 100.873 55.5117 101.081 55.5117C101.288 55.5117 101.471 55.5785 101.621 55.7204C101.77 55.8623 101.845 56.0292 101.845 56.2296C101.845 56.4299 101.77 56.5969 101.621 56.7388C101.463 56.8807 101.288 56.9474 101.081 56.9474ZM100.466 64.1261V57.9074H101.67V64.1261H100.466Z" fill="#2E2E2E"/>
<path d="M106.182 57.9077V58.876H102.801V57.9077H106.182ZM103.706 56.4219H104.911V62.3067C104.911 62.5404 104.944 62.7157 105.019 62.8326C105.094 62.9494 105.177 63.0329 105.293 63.0746C105.401 63.1164 105.525 63.1414 105.658 63.1414C105.758 63.1414 105.841 63.1331 105.916 63.1247C105.991 63.1164 106.049 63.0997 106.082 63.0913L106.298 64.093C106.232 64.118 106.132 64.1514 105.999 64.1765C105.866 64.2015 105.708 64.2182 105.517 64.2266C105.202 64.2349 104.902 64.1765 104.628 64.0596C104.354 63.9427 104.13 63.7591 103.964 63.5087C103.798 63.2583 103.706 62.9494 103.706 62.5738V56.4219Z" fill="#2E2E2E"/>
<path d="M111.433 61.5456V57.9062H112.637V64.1249H111.449V63.0482H111.383C111.242 63.382 111.009 63.6575 110.702 63.8745C110.386 64.0916 110.004 64.2084 109.539 64.2084C109.14 64.2084 108.791 64.1166 108.484 63.9413C108.176 63.766 107.944 63.4989 107.769 63.1567C107.595 62.8061 107.512 62.3804 107.512 61.8628V57.9062H108.716V61.7126C108.716 62.1383 108.833 62.4722 109.065 62.7226C109.298 62.973 109.605 63.0982 109.979 63.0982C110.203 63.0982 110.427 63.0398 110.652 62.9313C110.876 62.8144 111.059 62.6475 111.208 62.4138C111.358 62.1967 111.433 61.9046 111.433 61.5456Z" fill="#2E2E2E"/>
<path d="M117.139 57.9077V58.876H113.758V57.9077H117.139ZM114.672 56.4219H115.876V62.3067C115.876 62.5404 115.909 62.7157 115.984 62.8326C116.059 62.9494 116.142 63.0329 116.258 63.0746C116.366 63.1164 116.491 63.1414 116.624 63.1414C116.723 63.1414 116.806 63.1331 116.881 63.1247C116.956 63.1164 117.014 63.0997 117.047 63.0913L117.263 64.093C117.197 64.118 117.097 64.1514 116.964 64.1765C116.831 64.2015 116.674 64.2182 116.483 64.2266C116.167 64.2349 115.868 64.1765 115.594 64.0596C115.32 63.9427 115.095 63.7591 114.929 63.5087C114.763 63.2583 114.672 62.9494 114.672 62.5738V56.4219Z" fill="#2E2E2E"/>
<path d="M121.136 64.2511C120.53 64.2511 119.998 64.1175 119.566 63.8587C119.134 63.6 118.785 63.2244 118.553 62.7486C118.32 62.2728 118.195 61.7052 118.195 61.0624C118.195 60.428 118.312 59.8604 118.553 59.3763C118.793 58.8921 119.126 58.5082 119.549 58.241C119.981 57.9656 120.48 57.832 121.053 57.832C121.402 57.832 121.742 57.8905 122.066 58.0073C122.39 58.1242 122.689 58.3078 122.947 58.5499C123.204 58.8003 123.412 59.1175 123.562 59.5182C123.711 59.9105 123.786 60.3946 123.786 60.9539V61.3796H118.868V60.4698H122.606C122.606 60.1526 122.54 59.8688 122.415 59.6183C122.291 59.3679 122.108 59.1759 121.875 59.034C121.643 58.8921 121.369 58.817 121.061 58.817C120.721 58.817 120.43 58.9005 120.181 59.0674C119.931 59.2344 119.732 59.4514 119.599 59.7185C119.466 59.9856 119.4 60.2694 119.4 60.5866V61.2961C119.4 61.7135 119.475 62.0641 119.616 62.3562C119.765 62.6484 119.965 62.8738 120.231 63.024C120.496 63.1743 120.804 63.2494 121.153 63.2494C121.377 63.2494 121.593 63.216 121.776 63.1492C121.967 63.0824 122.125 62.9823 122.266 62.8487C122.399 62.7152 122.507 62.5566 122.581 62.3562L123.719 62.5649C123.628 62.8988 123.462 63.1993 123.229 63.4497C122.997 63.7001 122.698 63.9005 122.349 64.034C121.992 64.1843 121.593 64.2511 121.136 64.2511Z" fill="#2E2E2E"/>
</svg>
