<svg width="613" height="402" viewBox="0 0 613 402" fill="none" xmlns="http://www.w3.org/2000/svg">
<path d="M601.949 95.2709L592.379 141.621L586.219 135.611L575.739 143.091L567.729 133.141L549.769 146.201L534.419 120.531L517.299 130.561L510.509 121.201L488.769 133.451L482.229 119.441L497.469 45.6309L579.169 62.5009L601.949 95.2709Z" fill="#EBEBEB"/>
<path d="M579.169 62.5L601.949 95.27L573.609 89.42L579.169 62.5Z" fill="#DBDBDB"/>
<path d="M590.34 150.881L576.31 218.881L466.26 196.161L480.19 128.711L486.73 142.711L508.48 130.461L515.26 139.821L532.39 129.801L547.73 155.471L565.7 142.411L573.7 152.351L584.19 144.881L590.34 150.881Z" fill="#EBEBEB"/>
<path d="M432.83 142.91L320.68 149.85L311.77 5.89047L395.05 0.730469L425.62 26.3805L432.83 142.91Z" fill="#EBEBEB"/>
<path d="M395.049 0.730469L425.619 26.3805L396.739 28.1705L395.049 0.730469Z" fill="#DBDBDB"/>
<path d="M364 97.6004L363.56 94.3504C362.43 87.6204 364.27 80.0903 370.12 72.2203C375.4 65.2203 378.26 60.2203 377.94 54.5403C377.58 48.1403 373.33 44.1003 365.42 44.4203C360.899 44.6551 356.557 46.2595 352.97 49.0203L349.52 41.2903C353.52 38.0403 360.52 35.6403 367.17 35.2903C381.6 34.4903 388.62 43.0303 389.17 52.5603C389.65 61.0903 385.23 67.5004 379.61 74.9904C374.45 81.8204 372.76 87.4504 373.49 93.8204L373.8 97.0803L364 97.6004ZM362.22 115.31C361.96 110.67 364.91 107.23 369.3 106.99C373.69 106.75 376.89 109.83 377.15 114.48C377.39 118.87 374.7 122.41 370.06 122.67C365.63 122.92 362.43 119.7 362.18 115.31H362.22Z" fill="#DBDBDB"/>
<path d="M83.48 73.11L72.2 68L70.63 71.45C70.3982 71.943 70.0365 72.3636 69.5837 72.6667C69.1309 72.9697 68.6042 73.1437 68.06 73.17C67.4401 73.1903 66.8222 73.2504 66.21 73.35C65.6726 73.4298 65.1237 73.3622 64.6217 73.1544C64.1198 72.9465 63.6837 72.6063 63.36 72.17L61.15 69.08L51.08 76.3L53.29 79.39C53.5974 79.836 53.7783 80.3569 53.8135 80.8974C53.8487 81.4379 53.7369 81.9779 53.49 82.46C53.2049 83.0099 52.9479 83.574 52.72 84.15C52.5219 84.6579 52.1891 85.1022 51.7575 85.4352C51.3258 85.7682 50.8116 85.9773 50.27 86.04L46.5 86.41L47.71 98.74L51.5 98.36C52.0435 98.3166 52.5886 98.4221 53.0767 98.6653C53.5647 98.9084 53.9773 99.28 54.27 99.74C54.43 100 54.6 100.25 54.78 100.5C54.96 100.75 55.14 100.99 55.33 101.23C55.6751 101.65 55.897 102.157 55.9712 102.696C56.0453 103.234 55.9687 103.782 55.75 104.28L54.17 107.76L65.46 112.88L67.03 109.41C67.264 108.917 67.6279 108.498 68.0824 108.197C68.537 107.895 69.0651 107.724 69.61 107.7C70.2229 107.675 70.8339 107.615 71.44 107.52C71.9774 107.44 72.5263 107.508 73.0283 107.716C73.5302 107.923 73.9663 108.264 74.29 108.7L76.5 111.79L86.58 104.57L84.37 101.48C84.0532 101.038 83.8665 100.516 83.8311 99.9736C83.7958 99.431 83.9132 98.8893 84.17 98.41C84.4486 97.8632 84.6989 97.3025 84.92 96.73C85.1123 96.2184 85.4435 95.7705 85.8762 95.4366C86.309 95.1028 86.8263 94.8961 87.37 94.84L91.16 94.46L89.94 82.13L86.15 82.5C85.6099 82.5474 85.0671 82.4446 84.5818 82.2028C84.0965 81.961 83.6875 81.5897 83.4 81.13C83.23 80.87 83.06 80.62 82.88 80.37C82.7 80.12 82.52 79.87 82.33 79.64C81.9872 79.215 81.767 78.7044 81.693 78.1634C81.619 77.6224 81.694 77.0715 81.91 76.57L83.48 73.11ZM77.08 84.52C78.2494 86.1519 78.9086 88.0939 78.9742 90.1004C79.0398 92.107 78.5089 94.0879 77.4487 95.7927C76.3884 97.4975 74.8463 98.8496 73.0176 99.6779C71.1888 100.506 69.1555 100.774 67.1748 100.446C65.194 100.119 63.3548 99.2117 61.8898 97.839C60.4248 96.4663 59.3997 94.69 58.9443 92.7348C58.4888 90.7795 58.6235 88.7331 59.3311 86.8543C60.0388 84.9756 61.2878 83.3489 62.92 82.18C65.1082 80.613 67.8291 79.9792 70.4845 80.418C73.1399 80.8568 75.5123 82.3323 77.08 84.52V84.52Z" fill="#EBEBEB"/>
<path d="M593.38 236.711L585.86 241.051L587.19 243.351C587.389 243.681 587.488 244.061 587.475 244.446C587.463 244.831 587.339 245.204 587.12 245.521C586.89 245.881 586.67 246.251 586.47 246.641C586.306 246.986 586.046 247.277 585.722 247.479C585.397 247.681 585.022 247.786 584.64 247.781H582V256.471H584.66C585.042 256.466 585.417 256.571 585.742 256.773C586.066 256.975 586.326 257.266 586.49 257.611C586.69 258.001 586.91 258.371 587.14 258.731C587.359 259.048 587.483 259.421 587.495 259.806C587.507 260.191 587.409 260.571 587.21 260.901L585.88 263.201L593.4 267.541L594.74 265.231C594.934 264.903 595.216 264.636 595.553 264.46C595.89 264.283 596.27 264.204 596.65 264.231H597.93C598.31 264.205 598.689 264.285 599.026 264.461C599.363 264.638 599.645 264.904 599.84 265.231L601.18 267.551L608.69 263.211L607.36 260.901C607.171 260.569 607.078 260.191 607.092 259.81C607.106 259.428 607.227 259.058 607.44 258.741C607.67 258.381 607.89 258.001 608.09 257.621C608.254 257.276 608.514 256.985 608.838 256.783C609.163 256.581 609.538 256.476 609.92 256.481H612.58V247.791H609.9C609.518 247.796 609.143 247.691 608.818 247.489C608.494 247.287 608.234 246.996 608.07 246.651C607.87 246.271 607.65 245.891 607.42 245.531C607.207 245.214 607.086 244.844 607.072 244.462C607.058 244.081 607.151 243.703 607.34 243.371L608.67 241.061L601.16 236.721L599.82 239.001C599.626 239.329 599.344 239.596 599.007 239.772C598.67 239.949 598.29 240.028 597.91 240.001H597.27H596.63C596.249 240.027 595.868 239.947 595.53 239.77C595.191 239.594 594.907 239.328 594.71 239.001L593.38 236.711ZM597.27 245.011C598.679 245.009 600.057 245.425 601.229 246.207C602.402 246.988 603.316 248.1 603.856 249.402C604.396 250.703 604.538 252.135 604.264 253.518C603.989 254.9 603.311 256.169 602.315 257.166C601.318 258.162 600.049 258.84 598.667 259.115C597.284 259.389 595.852 259.247 594.551 258.707C593.249 258.167 592.137 257.253 591.356 256.08C590.574 254.908 590.158 253.53 590.16 252.121C590.159 251.186 590.342 250.261 590.698 249.397C591.055 248.533 591.579 247.748 592.239 247.087C592.899 246.426 593.684 245.901 594.547 245.543C595.41 245.185 596.335 245.001 597.27 245.001V245.011Z" fill="#EBEBEB"/>
<path d="M106.298 36.1609L99.4084 41.4409L100.998 43.5509C101.236 43.8516 101.381 44.214 101.419 44.5951C101.456 44.9763 101.383 45.3601 101.208 45.7009C101.017 46.0902 100.85 46.491 100.708 46.9009C100.585 47.2621 100.364 47.5817 100.069 47.8237C99.7735 48.0658 99.4167 48.2206 99.0384 48.2709L96.3984 48.6109L97.5184 57.2209L100.158 56.8809C100.543 56.8274 100.934 56.8834 101.288 57.0427C101.642 57.2019 101.944 57.4578 102.158 57.7809C102.399 58.1288 102.66 58.4627 102.938 58.7809C103.196 59.0643 103.367 59.4156 103.431 59.7932C103.495 60.1707 103.449 60.5587 103.298 60.9109L102.298 63.3709L110.298 66.7009L111.298 64.2409C111.447 63.888 111.692 63.5839 112.005 63.363C112.318 63.142 112.686 63.0132 113.068 62.9909L113.708 62.9209L114.338 62.8209C114.709 62.7512 115.091 62.7842 115.443 62.9165C115.796 63.0487 116.105 63.2751 116.338 63.5709L117.968 65.7009L124.858 60.4209L123.248 58.3109C123.016 58.0061 122.873 57.6424 122.836 57.2608C122.799 56.8792 122.869 56.4949 123.038 56.1509C123.228 55.7643 123.395 55.367 123.538 54.9609C123.662 54.5998 123.883 54.2802 124.178 54.0381C124.473 53.7961 124.83 53.6412 125.208 53.5909L127.848 53.2509L126.728 44.6409L124.088 44.9809C123.705 45.0355 123.314 44.981 122.96 44.8236C122.607 44.6662 122.304 44.4122 122.088 44.0909C121.838 43.7309 121.578 43.3909 121.298 43.0909C121.065 42.8015 120.915 42.4548 120.862 42.0871C120.809 41.7193 120.856 41.3442 120.998 41.0009L121.998 38.5409L113.998 35.2109L112.998 37.6709C112.848 38.0225 112.603 38.3254 112.29 38.546C111.978 38.7667 111.61 38.8965 111.228 38.9209L110.588 38.9809L109.998 39.0009C109.628 39.0707 109.246 39.0376 108.894 38.9054C108.541 38.7732 108.231 38.5468 107.998 38.2509L106.298 36.1609ZM111.228 43.8909C112.621 43.7119 114.036 43.9494 115.294 44.5734C116.553 45.1975 117.598 46.1803 118.298 47.3977C118.998 48.615 119.322 50.0126 119.229 51.4139C119.136 52.8153 118.63 54.1577 117.775 55.2718C116.92 56.3859 115.754 57.2219 114.425 57.6741C113.095 58.1264 111.661 58.1748 110.304 57.8131C108.947 57.4515 107.727 56.696 106.799 55.6421C105.871 54.5881 105.276 53.2828 105.088 51.8909C104.963 50.9621 105.023 50.0177 105.265 49.1121C105.506 48.2065 105.924 47.3575 106.495 46.614C107.065 45.8705 107.777 45.2472 108.59 44.7799C109.402 44.3125 110.299 44.0104 111.228 43.8909Z" fill="#EBEBEB"/>
<path d="M54.8196 261.781C55.1952 252.114 55.0617 242.434 54.4196 232.781C52.9887 212.848 49.9488 193.064 45.3296 173.621C42.7896 162.681 39.6696 151.921 36.4096 141.171C36.3096 140.841 35.7896 140.931 35.8796 141.271C45.9496 179.171 54.2096 218.271 53.6396 257.671C53.4796 268.671 52.1996 279.521 51.1596 290.481C51.1596 290.771 51.6096 290.891 51.6796 290.591C53.7496 281.181 54.4296 271.361 54.8196 261.781Z" fill="#EBEBEB"/>
<path d="M35.8782 141.24C35.8782 141.24 20.6382 179.94 24.0482 189C27.4582 198.06 34.4982 200 34.4982 200C34.4982 200 25.1682 213.32 31.6882 225.81C38.2082 238.3 52.6882 237.71 53.6882 251.87C53.6582 251.94 54.4582 192.73 35.8782 141.24Z" fill="#EBEBEB"/>
<path d="M51.9987 227.49C52.0233 227.425 52.0233 227.354 51.9987 227.29C49.9985 200.869 45.0408 174.756 37.2187 149.44C37.2187 149.37 37.0687 149.39 37.0887 149.44C40.1087 160.773 42.7753 172.153 45.0887 183.58C43.0398 181.639 40.5368 180.243 37.8087 179.52C37.8087 179.52 37.7287 179.58 37.8087 179.6C40.6746 180.65 43.2515 182.363 45.3287 184.6C45.7687 186.85 46.2087 189.09 46.6187 191.34C43.2087 187.53 38.4887 185.64 33.7587 183.84C33.748 183.844 33.7389 183.852 33.7325 183.862C33.7261 183.872 33.7227 183.883 33.7227 183.895C33.7227 183.907 33.7261 183.918 33.7325 183.928C33.7389 183.937 33.748 183.945 33.7587 183.95C38.6887 185.95 43.5887 188.53 46.9287 192.78C48.0887 199.2 49.1087 205.643 49.9887 212.11C47.5265 209.53 44.3689 207.721 40.8987 206.9C40.7887 206.9 40.7287 207.03 40.8387 207.06C44.4034 208.11 47.586 210.173 49.9987 213H50.0587C50.3587 215.267 50.6453 217.543 50.9187 219.83C49.014 218.218 46.8634 216.922 44.5487 215.99C44.4887 215.99 44.4487 216.06 44.5487 216.08C46.9108 217.103 49.074 218.535 50.9387 220.31C50.9387 220.31 50.9887 220.31 51.0187 220.31C51.2687 222.48 51.5187 224.65 51.7387 226.82C48.3048 222.669 43.8484 219.484 38.8087 217.58C38.7875 217.58 38.7671 217.588 38.7521 217.603C38.7371 217.618 38.7287 217.639 38.7287 217.66C38.7287 217.681 38.7371 217.701 38.7521 217.716C38.7671 217.731 38.7875 217.74 38.8087 217.74C43.7851 219.933 48.1563 223.299 51.5487 227.55C51.586 227.596 51.6364 227.631 51.6934 227.649C51.7504 227.667 51.8114 227.667 51.8687 227.65C52.1987 230.98 52.4987 234.31 52.7387 237.65C52.7387 237.7 52.8187 237.7 52.8187 237.65C52.5587 234.297 52.2853 230.91 51.9987 227.49Z" fill="white"/>
<path d="M39.7493 175.71C36.9893 173.992 33.8363 173.007 30.5893 172.85C30.5734 172.85 30.5581 172.856 30.5469 172.867C30.5356 172.878 30.5293 172.894 30.5293 172.91C30.5293 172.926 30.5356 172.941 30.5469 172.952C30.5581 172.963 30.5734 172.97 30.5893 172.97C33.7286 173.565 36.7751 174.574 39.6493 175.97C39.7693 176 39.8593 175.79 39.7493 175.71Z" fill="white"/>
<path d="M41.6001 216.68C39.4787 215.463 37.1429 214.665 34.7201 214.33C34.6401 214.33 34.6301 214.44 34.7201 214.46C37.086 214.935 39.3746 215.736 41.5201 216.84C41.6101 216.89 41.6901 216.73 41.6001 216.68Z" fill="white"/>
<path d="M94.8985 189.671C88.4513 194.128 82.5302 199.301 77.2485 205.091C71.8015 211.222 67.6 218.355 64.8785 226.091C59.0863 242.209 55.9718 259.167 55.6585 276.291C55.4642 285.774 56.3737 295.248 58.3685 304.521C58.3846 304.588 58.4261 304.647 58.4843 304.685C58.5425 304.722 58.613 304.736 58.6811 304.723C58.7492 304.71 58.8097 304.672 58.8502 304.616C58.8907 304.559 58.908 304.49 58.8985 304.421C56.4162 288.057 56.5107 271.406 59.1785 255.071C61.7985 239.071 65.9085 221.651 76.0885 208.641C81.6285 201.551 88.5385 195.981 95.3685 190.221C95.7285 189.901 95.2685 189.411 94.8985 189.671Z" fill="#EBEBEB"/>
<path d="M57.8984 264.75C61.5683 258.814 65.8809 253.301 70.7584 248.31C78.3884 240.68 84.8084 235.26 85.8084 230.22C86.8084 225.18 78.1684 221.46 78.1684 221.46C78.1684 221.46 88.7184 223.36 91.6084 218.93C94.4984 214.5 95.8884 188.84 95.8884 188.84C95.8884 188.84 76.6884 202.55 67.7384 221.77C58.7884 240.99 57.8984 264.75 57.8984 264.75Z" fill="#EBEBEB"/>
<path d="M88.9991 212.91C87.7348 212.722 86.4532 212.678 85.1791 212.78C85.0291 212.78 85.0391 213.04 85.1791 213.05C86.4391 213.05 87.7091 212.99 88.9691 213.05C88.9835 213.046 88.9966 213.039 89.0069 213.028C89.0172 213.017 89.0243 213.004 89.0274 212.989C89.0305 212.975 89.0295 212.96 89.0245 212.946C89.0195 212.932 89.0107 212.919 88.9991 212.91V212.91Z" fill="white"/>
<path d="M75.2091 237.801C73.1816 237.842 71.1774 238.242 69.2891 238.981C69.2891 238.981 69.2891 239.081 69.2891 239.071C71.2891 238.601 73.2191 238.411 75.1991 238.071C75.2249 238.059 75.247 238.041 75.2629 238.018C75.2788 237.994 75.2878 237.967 75.2888 237.939C75.2899 237.911 75.2829 237.883 75.2688 237.858C75.2547 237.834 75.234 237.814 75.2091 237.801V237.801Z" fill="white"/>
<path d="M71.07 229.2C70.2282 229.193 69.3877 229.267 68.56 229.42C68.5447 229.425 68.5314 229.436 68.5221 229.449C68.5128 229.462 68.5078 229.478 68.5078 229.495C68.5078 229.511 68.5128 229.527 68.5221 229.54C68.5314 229.554 68.5447 229.564 68.56 229.57C69.3982 229.618 70.2392 229.581 71.07 229.46C71.1045 229.46 71.1375 229.446 71.1619 229.422C71.1863 229.397 71.2 229.364 71.2 229.33C71.2 229.295 71.1863 229.262 71.1619 229.238C71.1375 229.213 71.1045 229.2 71.07 229.2V229.2Z" fill="white"/>
<path d="M1.60891 216.891C7.85811 219.01 13.8465 221.831 19.4589 225.301C25.2823 229.002 30.3323 233.797 34.3289 239.421C42.7379 251.126 49.1762 264.128 53.3889 277.911C55.7384 285.543 57.1882 293.423 57.7089 301.391C57.698 301.443 57.6697 301.489 57.6287 301.522C57.5877 301.555 57.5366 301.573 57.4839 301.573C57.4312 301.573 57.3801 301.555 57.3391 301.522C57.2982 301.489 57.2698 301.443 57.2589 301.391C55.4937 287.575 51.5728 274.122 45.6389 261.521C39.8089 249.171 32.4589 236.031 21.2189 227.851C15.0989 223.401 8.21891 220.481 1.35891 217.401C0.998913 217.281 1.24891 216.771 1.60891 216.891Z" fill="#EBEBEB"/>
<path d="M48.9091 269.101C44.5646 265.148 39.7994 261.684 34.6991 258.771C26.7591 254.361 20.3091 251.461 18.3391 247.611C16.3691 243.761 22.4991 238.761 22.4991 238.761C22.4991 238.761 14.3991 242.761 11.0391 239.811C7.67914 236.861 0.619141 216.461 0.619141 216.461C0.619141 216.461 19.3291 223.111 30.9991 236.601C42.6691 250.091 48.9091 269.101 48.9091 269.101Z" fill="#EBEBEB"/>
<path d="M33.3794 250.32C31.5399 250.192 29.6929 250.419 27.9395 250.99C27.9395 250.99 27.9395 251.08 27.9395 251.07C29.7283 250.763 31.5357 250.576 33.3494 250.51C33.4794 250.51 33.5094 250.33 33.3794 250.32Z" fill="white"/>
<path d="M17.059 228.921C16.2199 228.853 15.3753 228.9 14.549 229.061C14.459 229.061 14.489 229.221 14.549 229.211C15.379 229.121 16.189 229.151 17.009 229.131C17.0345 229.132 17.0595 229.124 17.0798 229.109C17.1001 229.093 17.1145 229.071 17.1204 229.047C17.1263 229.022 17.1234 228.996 17.1122 228.973C17.101 228.95 17.0822 228.932 17.059 228.921V228.921Z" fill="white"/>
<path d="M73.0386 327.18H30.8086L36.8286 283.07L38.3686 271.76H65.4786L67.0186 283.07L73.0386 327.18Z" fill="#DBDBDB"/>
<path d="M67.0201 283.07H36.8301L38.3701 271.76H65.4801L67.0201 283.07Z" fill="#C7C7C7"/>
<path d="M69.3483 267.84H34.4883V277.42H69.3483V267.84Z" fill="#DBDBDB"/>
<path d="M3.95898 327.18L79.969 326.94L155.979 326.85L307.999 326.68L460.019 326.85L536.029 326.94L612.039 327.18L536.029 327.43L460.019 327.51L307.999 327.68L155.979 327.51L79.969 327.42L3.95898 327.18Z" fill="#263238"/>
<path d="M310 401.711C468.362 401.711 596.74 387.644 596.74 370.291C596.74 352.938 468.362 338.871 310 338.871C151.638 338.871 23.2598 352.938 23.2598 370.291C23.2598 387.644 151.638 401.711 310 401.711Z" fill="#EBEBEB"/>
<path d="M243.25 365.091C240.92 365.881 174.11 366.091 171.55 364.511C170.55 363.911 169.98 354.181 169.55 342.401C169.46 339.861 169.39 337.231 169.33 334.571L164 298.931L208.67 298.641L212.88 334.291L212.71 342.131C212.71 342.131 238.33 353.481 240.95 355.541C243.57 357.601 245.58 364.301 243.25 365.091Z" fill="#EB9481"/>
<path d="M243.249 365.091C240.919 365.881 174.109 366.091 171.549 364.511C170.369 363.771 169.729 349.561 169.369 334.571L212.829 334.291L212.659 342.131C212.659 342.131 238.279 353.481 240.899 355.541C243.519 357.601 245.579 364.301 243.249 365.091Z" fill="white"/>
<path d="M243.249 365.091C240.919 365.881 174.109 366.091 171.549 364.511C170.549 363.911 169.979 354.181 169.549 342.401L212.619 342.131C212.619 342.131 238.239 353.481 240.859 355.541C243.479 357.601 245.579 364.301 243.249 365.091Z" fill="#A6A6A6"/>
<path d="M242.28 362.42C231.08 362.18 185.88 362.29 174.79 362.91C174.7 362.91 174.7 362.97 174.79 362.98C185.89 363.45 231.09 362.98 242.28 362.6C242.52 362.59 242.52 362.42 242.28 362.42Z" fill="#263238"/>
<path d="M236.59 353.151C235.344 353.123 234.107 353.354 232.955 353.829C231.804 354.304 230.763 355.013 229.9 355.911C228.326 357.513 227.437 359.665 227.42 361.911C227.42 361.981 227.54 361.981 227.55 361.911C227.922 359.698 228.999 357.665 230.621 356.115C232.243 354.566 234.323 353.582 236.55 353.311C236.571 353.316 236.594 353.313 236.612 353.301C236.631 353.29 236.645 353.272 236.65 353.251C236.655 353.229 236.652 353.207 236.641 353.188C236.629 353.17 236.611 353.156 236.59 353.151V353.151Z" fill="#263238"/>
<path d="M217 343.23C212.52 343.18 207.33 344.78 204.55 348.46C204.45 348.6 204.65 348.75 204.78 348.68C208.695 346.614 212.818 344.971 217.08 343.78C217.146 343.762 217.203 343.72 217.241 343.663C217.278 343.606 217.294 343.537 217.284 343.469C217.274 343.402 217.24 343.34 217.187 343.296C217.135 343.252 217.069 343.228 217 343.23V343.23Z" fill="#263238"/>
<path d="M220.48 344.561C215.99 344.561 210.8 346.121 208.03 349.791C207.92 349.941 208.12 350.091 208.26 350.021C212.168 347.947 216.289 346.301 220.55 345.111C220.615 345.093 220.671 345.052 220.709 344.996C220.746 344.94 220.762 344.872 220.754 344.805C220.745 344.738 220.713 344.677 220.662 344.632C220.612 344.587 220.547 344.562 220.48 344.561V344.561Z" fill="#263238"/>
<path d="M223.94 345.9C219.46 345.9 214.27 347.45 211.49 351.13C211.39 351.27 211.59 351.42 211.72 351.35C215.634 349.284 219.757 347.642 224.02 346.45C224.086 346.432 224.143 346.391 224.18 346.334C224.218 346.277 224.233 346.208 224.223 346.14C224.213 346.072 224.179 346.011 224.127 345.967C224.075 345.923 224.008 345.899 223.94 345.9Z" fill="#263238"/>
<path d="M227.411 347.241C222.921 347.191 217.73 348.791 214.96 352.471C214.85 352.611 215.061 352.761 215.191 352.691C219.104 350.624 223.227 348.981 227.49 347.791C227.556 347.773 227.613 347.732 227.651 347.675C227.688 347.617 227.704 347.549 227.694 347.481C227.684 347.413 227.65 347.352 227.597 347.308C227.545 347.263 227.479 347.24 227.411 347.241V347.241Z" fill="#263238"/>
<path d="M177.609 352.26C172.609 352.26 172.609 360.11 177.609 360.08C182.609 360.05 182.649 352.23 177.609 352.26Z" fill="#263238"/>
<path d="M221.809 331.25C219.539 329.37 216.679 331.25 215.289 333.18C212.975 336.591 211.596 340.55 211.289 344.66C211.289 344.75 211.359 344.79 211.429 344.79C211.447 344.875 211.485 344.954 211.539 345.021C211.594 345.088 211.664 345.141 211.743 345.175C211.823 345.209 211.909 345.224 211.995 345.218C212.082 345.212 212.165 345.185 212.239 345.14C215.419 342.93 219.099 340.95 221.509 337.82C222.879 336 223.999 333 221.809 331.25ZM216.349 340.79C214.809 341.92 213.219 342.97 211.719 344.16C212.519 341.92 213.209 339.66 214.229 337.5C214.7 336.464 215.242 335.462 215.849 334.5C216.849 333.01 221.209 329.25 221.669 334.12C221.929 336.79 218.179 339.45 216.349 340.79Z" fill="#263238"/>
<path d="M200.129 346.361C204.029 346.941 208.059 345.821 211.889 345.211C211.972 345.189 212.049 345.148 212.114 345.092C212.178 345.035 212.229 344.964 212.261 344.884C212.293 344.804 212.306 344.718 212.298 344.633C212.291 344.547 212.264 344.464 212.219 344.391C212.234 344.38 212.245 344.365 212.254 344.349C212.262 344.332 212.266 344.314 212.266 344.296C212.266 344.278 212.262 344.259 212.254 344.243C212.245 344.226 212.234 344.212 212.219 344.201C209.142 341.456 205.396 339.57 201.359 338.731C198.999 338.281 195.659 338.931 195.359 341.861C194.999 344.621 197.849 346.001 200.129 346.361ZM197.409 343.821C194.409 339.981 200.139 339.651 201.859 340.051C202.975 340.33 204.071 340.684 205.139 341.111C207.326 342.018 209.466 343.036 211.549 344.161C209.649 344.351 207.779 344.691 205.889 344.951C203.629 345.251 199.089 345.931 197.409 343.821V343.821Z" fill="#263238"/>
<path d="M98.3203 134.201C98.3203 134.201 150.19 222.441 151.58 228.641C153.71 238.161 165 332.171 165 332.171L219 331.171C219 331.171 209.7 248.281 200.89 220.971C194.55 201.301 148.77 136.061 148.77 136.061L98.3203 134.201Z" fill="#37474F"/>
<path d="M214.09 322.931C206.34 322.871 178.87 322.561 168.55 323.521C168.47 323.521 168.48 323.661 168.55 323.671C172.1 324.181 206.33 323.391 214.08 323.141C214.097 323.147 214.114 323.149 214.131 323.147C214.148 323.145 214.165 323.139 214.179 323.129C214.193 323.12 214.205 323.107 214.214 323.092C214.222 323.077 214.227 323.06 214.228 323.043C214.229 323.026 214.225 323.009 214.218 322.993C214.211 322.977 214.201 322.963 214.187 322.953C214.174 322.942 214.158 322.934 214.141 322.93C214.125 322.927 214.107 322.927 214.09 322.931V322.931Z" fill="#263238"/>
<path d="M107.17 142.3C110.57 147.63 114.17 152.85 117.63 158.14C121.09 163.43 124.57 168.72 128 174C134.84 184.667 141.507 195.404 148 206.21C151.169 211.22 153.88 216.504 156.1 222C158.127 227.498 159.65 233.168 160.65 238.94C161.71 244.73 162.41 250.58 163.06 256.43C163.727 262.65 164.424 268.874 165.15 275.1C166.57 287.84 167.994 300.58 169.42 313.32C169.59 314.88 169.76 316.44 169.92 318.01C169.92 318.24 169.53 318.28 169.5 318.01C167.91 305.36 166.59 292.66 165.15 280.01C164.43 273.697 163.714 267.387 163 261.08C162.33 255.21 161.69 249.33 160.78 243.5C159.945 237.746 158.675 232.063 156.98 226.5C155.113 220.741 152.611 215.207 149.52 210C143.27 199.21 136.65 188.61 130.03 178C123.41 167.39 116.61 156.69 109.63 146.21C108.77 144.92 107.9 143.63 107 142.36C106.93 142.29 107.11 142.2 107.17 142.3Z" fill="#263238"/>
<path d="M115.32 370.29C112.86 370.14 49.3197 344.4 47.5597 341.96C47.4814 341.817 47.4466 341.653 47.4597 341.49C47.4597 339.3 51.8698 331.66 55.5498 321.62C55.7798 320.98 57.4198 318 59.6898 313.99C65.9998 303 76.9997 284.07 76.9997 284.07L118.53 300.57L98.6497 330.32L95.5597 337.52C95.5597 337.52 115.05 357.67 116.69 360.52C118.33 363.37 117.77 370.43 115.32 370.29Z" fill="#EB9481"/>
<path d="M115.32 370.29C112.86 370.14 49.3197 344.4 47.5597 341.96C47.4814 341.817 47.4466 341.653 47.4597 341.49C47.4597 339.3 51.8698 331.66 55.5498 321.62C55.7798 320.98 57.4198 318 59.6898 313.99L98.6898 330.32L95.5998 337.52C95.5998 337.52 115.09 357.67 116.73 360.52C118.37 363.37 117.77 370.43 115.32 370.29Z" fill="white"/>
<path d="M115.32 370.291C112.86 370.141 49.3199 344.401 47.5599 341.961C46.8799 341.031 49.7199 332.361 55.5599 321.621L95.5599 337.531C95.5599 337.531 115.05 357.661 116.7 360.531C118.35 363.401 117.77 370.431 115.32 370.291Z" fill="#A6A6A6"/>
<path d="M115.421 367.45C105.131 363.03 63.1907 346.17 52.6807 342.59C52.5907 342.59 52.5707 342.59 52.6807 342.65C62.7907 347.25 104.861 363.77 115.381 367.65C115.581 367.7 115.641 367.54 115.421 367.45Z" fill="#263238"/>
<path d="M113.62 356.721C112.479 356.22 111.246 355.961 110 355.961C108.754 355.961 107.521 356.22 106.38 356.721C104.328 357.619 102.702 359.274 101.84 361.341C101.84 361.401 101.93 361.451 101.96 361.391C103.139 359.474 104.907 357.99 107 357.163C109.094 356.335 111.399 356.208 113.57 356.801C113.587 356.796 113.601 356.786 113.61 356.771C113.62 356.756 113.623 356.738 113.62 356.721V356.721Z" fill="#263238"/>
<path d="M99.1896 340.18C95.0596 338.45 89.6396 337.99 85.6896 340.36C85.5396 340.45 85.6896 340.66 85.8196 340.65C90.2229 340.203 94.6613 340.227 99.0596 340.72C99.1273 340.727 99.1953 340.71 99.251 340.67C99.3067 340.631 99.3462 340.573 99.3621 340.507C99.378 340.441 99.3693 340.371 99.3376 340.311C99.3058 340.251 99.2532 340.204 99.1896 340.18Z" fill="#263238"/>
<path d="M101.901 342.721C97.7705 340.991 92.3505 340.531 88.4005 342.901C88.2505 342.991 88.4005 343.201 88.5305 343.191C92.9336 342.739 97.3725 342.763 101.771 343.261C101.838 343.268 101.906 343.251 101.962 343.211C102.018 343.172 102.057 343.114 102.073 343.048C102.089 342.982 102.08 342.912 102.048 342.852C102.017 342.792 101.964 342.745 101.901 342.721Z" fill="#263238"/>
<path d="M104.62 345.26C100.48 343.53 95.0601 343.07 91.1201 345.44C90.9601 345.53 91.1201 345.74 91.2401 345.73C95.6431 345.278 100.082 345.302 104.48 345.8C104.549 345.811 104.62 345.797 104.679 345.759C104.737 345.72 104.78 345.662 104.797 345.594C104.815 345.526 104.807 345.454 104.774 345.392C104.741 345.331 104.686 345.283 104.62 345.26V345.26Z" fill="#263238"/>
<path d="M107.329 347.8C103.189 346.07 97.779 345.61 93.829 347.97C93.669 348.07 93.829 348.28 93.949 348.27C98.3521 347.819 102.791 347.842 107.189 348.34C107.258 348.352 107.329 348.337 107.388 348.299C107.446 348.261 107.489 348.202 107.506 348.134C107.524 348.067 107.515 347.995 107.483 347.933C107.45 347.871 107.395 347.824 107.329 347.8V347.8Z" fill="#263238"/>
<path d="M59.2795 333.771C54.6095 331.911 51.7095 339.181 56.3995 341.041C61.0895 342.901 63.9995 335.631 59.2795 333.771Z" fill="#263238"/>
<path d="M108.14 330.881C106.73 328.291 103.4 328.931 101.37 330.221C97.9502 332.512 95.1917 335.66 93.3699 339.351C93.3619 339.367 93.3576 339.385 93.3574 339.403C93.3573 339.421 93.3612 339.439 93.3689 339.455C93.3765 339.471 93.3878 339.486 93.4018 339.497C93.4159 339.509 93.4323 339.517 93.4499 339.521C93.4499 339.851 93.6699 340.241 94.0599 340.161C97.8499 339.291 102 338.841 105.4 336.841C107.35 335.681 109.47 333.331 108.14 330.881ZM99.4899 337.671C97.6399 338.141 95.7799 338.521 93.9499 339.061C95.4635 337.237 97.069 335.491 98.7599 333.831C99.5923 333.038 100.478 332.303 101.41 331.631C102.86 330.631 108.34 328.781 106.94 333.471C106.17 336.061 101.7 337.111 99.4899 337.671V337.671Z" fill="#263238"/>
<path d="M82.37 336.75C85.77 338.75 89.92 339.22 93.7 340.1C94.09 340.19 94.35 339.8 94.32 339.46C94.3388 339.458 94.3567 339.451 94.3721 339.44C94.3875 339.429 94.3998 339.415 94.4078 339.397C94.4158 339.38 94.4193 339.362 94.418 339.343C94.4166 339.324 94.4104 339.306 94.4 339.29C92.5811 335.592 89.8223 332.436 86.4 330.14C84.4 328.84 81.05 328.19 79.63 330.77C78.21 333.35 80.38 335.58 82.37 336.75ZM80.81 333.37C79.42 328.68 84.89 330.54 86.34 331.55C87.2711 332.223 88.1533 332.962 88.98 333.76C90.6677 335.424 92.2698 337.173 93.78 339C91.95 338.46 90.09 338.07 88.24 337.6C86 337 81.57 336 80.81 333.37Z" fill="#263238"/>
<path d="M101.881 328.66L55.3906 309.89C55.3906 309.89 113.031 225.14 113.451 218.83C113.831 213.25 88.5106 164.63 87.5206 150.46C86.4406 135.16 93.8006 123.33 101.901 115.98L149.851 136.37C149.851 136.37 144.791 144.46 136.851 148.97C136.851 148.97 161.441 205.17 160.041 222.45C158.641 239.73 101.881 328.66 101.881 328.66Z" fill="#37474F"/>
<path d="M103.94 319.82C97.2196 316.93 99.1896 317.66 92.4296 314.82C89.1296 313.44 67.4296 304.41 64.0896 303.66C64.0196 303.66 63.9696 303.76 64.0396 303.8C66.9296 305.57 88.8096 314.22 92.1396 315.54C98.9496 318.22 97.0196 317.38 103.86 319.98C103.87 319.994 103.883 320.005 103.899 320.012C103.914 320.018 103.932 320.021 103.949 320.02C103.966 320.018 103.982 320.012 103.996 320.003C104.01 319.993 104.021 319.98 104.029 319.965C104.037 319.95 104.04 319.933 104.039 319.916C104.039 319.899 104.034 319.882 104.025 319.868C104.016 319.853 104.003 319.841 103.988 319.833C103.973 319.825 103.957 319.82 103.94 319.82V319.82Z" fill="#263238"/>
<path d="M144.709 147.94C139.717 149.104 134.833 150.689 130.109 152.68C130.09 152.687 130.073 152.697 130.058 152.71C130.042 152.723 130.03 152.74 130.021 152.758C130.013 152.776 130.007 152.796 130.006 152.816C130.005 152.836 130.008 152.856 130.014 152.875C130.021 152.894 130.031 152.912 130.044 152.927C130.058 152.942 130.074 152.954 130.092 152.963C130.11 152.972 130.13 152.977 130.15 152.978C130.17 152.979 130.19 152.977 130.209 152.97C135.109 151.54 140.089 150.2 144.909 148.51C145.279 148.38 145.089 147.86 144.709 147.94Z" fill="#263238"/>
<path d="M139.001 146C138.535 146.829 138.124 147.687 137.771 148.57C137.425 149.24 137.212 149.97 137.141 150.72C137.141 150.87 137.341 150.9 137.431 150.81C137.932 150.21 138.337 149.535 138.631 148.81C139.041 148.02 139.461 147.24 139.851 146.43C140.121 145.84 139.311 145.46 139.001 146Z" fill="#263238"/>
<path d="M139.6 141.46C139.9 140.72 140.19 139.99 140.5 139.25C140.81 138.51 141.2 137.75 141.5 136.97C141.5 136.85 141.74 136.97 141.69 137.06C141.39 137.8 141.2 138.58 140.97 139.34C140.74 140.1 140.48 140.86 140.23 141.62C139.76 143.03 139.23 144.43 138.58 145.8C139.366 145.84 140.152 145.703 140.88 145.4C141.623 144.925 142.194 144.224 142.51 143.4C142.93 142.58 143.32 141.74 143.75 140.92C144.279 140.034 144.724 139.1 145.08 138.13C145.08 138.01 145.32 138.13 145.27 138.22C144.618 140.27 143.763 142.25 142.72 144.13C142.27 144.86 141.92 145.63 141.1 145.91C140.212 146.159 139.283 146.223 138.37 146.1C138.25 146.1 138.11 146.1 138.15 145.92C138.559 144.411 139.043 142.922 139.6 141.46V141.46Z" fill="#263238"/>
<path d="M137.56 150.801C139.27 154.411 140.77 158.011 142.36 161.611C143.95 165.211 145.36 168.691 146.79 172.271C149.65 179.491 152.21 186.851 154.46 194.271C155.57 197.951 156.6 201.661 157.52 205.401C158.533 209.129 159.275 212.925 159.74 216.761C160.141 220.59 159.802 224.46 158.74 228.161C157.637 231.819 156.222 235.375 154.51 238.791C153.46 240.951 153.11 240.661 153.61 239.571C155.04 236.471 158.79 227.081 158.52 219.191C158.301 215.413 157.719 211.666 156.78 208.001C155.907 204.221 154.923 200.471 153.83 196.751C151.7 189.411 149.17 182.221 146.57 175.041C145.11 171.041 143.57 167.041 142.07 163.041C140.57 159.041 139.07 155.361 137.39 150.941C137.34 150.761 137.51 150.691 137.56 150.801Z" fill="#263238"/>
<path d="M102.269 138.87C103.099 138.56 104.269 139.07 105.109 139.21C106.197 139.395 107.296 139.505 108.399 139.54C109.491 139.579 110.583 139.542 111.669 139.43C112.763 139.402 113.835 139.118 114.799 138.6C116.381 137.448 117.737 136.014 118.799 134.37C120.065 132.69 121.11 130.856 121.909 128.91C121.909 128.79 122.119 128.91 122.079 128.99C121.729 130.1 121.469 131.22 121.079 132.31C120.648 133.334 120.133 134.321 119.539 135.26C118.577 137.15 117.153 138.767 115.399 139.96C113.469 141.06 110.989 140.96 108.839 140.87C107.592 140.797 106.352 140.634 105.129 140.38C104.249 140.19 102.769 140.05 102.209 139.28C102.183 139.251 102.163 139.216 102.152 139.178C102.141 139.14 102.138 139.1 102.143 139.061C102.149 139.022 102.163 138.985 102.185 138.952C102.207 138.919 102.236 138.891 102.269 138.87V138.87Z" fill="#263238"/>
<path d="M68.6596 301C76.2996 289.427 83.7996 277.76 91.1596 266C98.5196 254.24 105.78 242.39 112.94 230.45C114.65 227.6 116.62 224.76 117.72 221.6C118.92 218.17 118.24 214.84 117.16 211.48C115.12 205.351 112.736 199.341 110.02 193.48C107.34 187.57 104.45 181.76 101.61 175.93C98.7696 170.1 95.7996 164.34 93.6096 158.26C91.6096 152.45 90.7996 146.43 92.3596 140.41C93.9196 134.39 97.2796 129.07 100.79 124.06C101.71 122.74 102.66 121.43 103.59 120.06C103.66 119.96 103.81 120.06 103.74 120.18C99.8696 125.4 96.0996 130.93 93.8296 137.06C92.6694 140.082 92.0206 143.276 91.9096 146.51C91.8907 149.794 92.4006 153.059 93.4196 156.18C95.2996 162.26 98.2696 168.01 101.04 173.73C103.81 179.45 106.77 185.37 109.5 191.26C112.316 197.188 114.819 203.26 117 209.45C117.93 212.2 119 215.08 118.92 218.03C118.85 221.26 117.31 224.17 115.71 226.89C108.71 238.74 101.54 250.45 94.2396 262.09C86.9396 273.73 79.4296 285.37 71.8296 296.89L68.9496 301.24C68.7996 301.42 68.5396 301.21 68.6596 301Z" fill="#263238"/>
<path d="M152.51 82.4708C156.84 91.9708 178.71 105.061 188.95 106.471C196.31 107.471 218.69 107.831 226.36 106.661C235.36 105.281 228.48 81.0308 223.17 81.6608C208.57 83.3608 196.17 85.2608 192.27 85.2608C187.51 85.2608 161.76 77.0008 158.66 75.8308C151.06 73.0008 150.06 77.0808 152.51 82.4708Z" fill="#EB9481"/>
<path d="M152.65 85.0007C158.13 93.1107 176.34 106.371 176.34 106.371L178.87 100.771L187.24 82.2507C187.24 82.2507 170.51 77.0007 159.5 74.6007C158.204 74.3058 156.886 74.1185 155.56 74.0407C148.53 73.6607 147.92 78.0007 152.65 85.0007Z" fill="#F5CF00"/>
<path d="M152.65 85.0006C158.13 93.1106 176.34 106.371 176.34 106.371L178.87 100.771C172.08 92.8806 161.59 80.9306 155.56 74.0606C148.53 73.6606 147.92 78.0006 152.65 85.0006Z" fill="#263238"/>
<path d="M173.06 102.611C174.45 99.2013 180.63 85.4713 182.17 82.6113C182.27 82.4113 182.43 82.4313 182.34 82.6113C179.659 89.4392 176.608 96.1158 173.2 102.611C173.16 102.731 173 102.691 173.06 102.611Z" fill="#263238"/>
<path d="M220.49 81.9102C229.37 80.7502 240.36 78.7602 249.67 82.7102C250.716 83.1203 251.593 83.8706 252.16 84.8402C256.36 86.5402 256.82 89.0302 256.82 89.0302C260.25 91.8102 260.37 94.4302 260.37 94.4302C260.37 94.4302 265.29 96.4302 264.54 99.6502C263.72 103.21 256.98 99.6502 252.08 99.9402C240.83 100.64 225.08 104.77 221.83 105.29L220.49 81.9102Z" fill="#EB9481"/>
<path d="M239.78 92.3899C243.07 92.1649 246.371 92.1649 249.66 92.3899C253.242 92.8393 256.786 93.558 260.26 94.5399C260.283 94.5479 260.307 94.5465 260.329 94.5362C260.351 94.5259 260.367 94.5074 260.375 94.4849C260.383 94.4624 260.382 94.4376 260.371 94.416C260.361 94.3944 260.343 94.3779 260.32 94.3699C253.793 91.809 246.688 91.0896 239.78 92.2899C239.62 92.2699 239.62 92.3999 239.78 92.3899Z" fill="#263238"/>
<path d="M237.689 81.9998C243.179 82.2798 246.609 83.1598 252.129 84.8198V84.7598C246.049 82.2198 243.559 81.9798 237.659 81.7598C237.469 81.8398 237.479 81.9998 237.689 81.9998Z" fill="#263238"/>
<path d="M238.58 101.641C237.15 102.311 237.5 103.061 240.23 103.691C242.96 104.321 254.31 104.511 253.91 108.471C253.51 112.431 237.5 111.931 233.03 110.531C228.56 109.131 221.83 105.291 221.83 105.291C225 104.761 232.44 102.751 238.58 101.641Z" fill="#EB9481"/>
<path d="M164.4 97.6098C164.33 99.3198 164.17 101.06 163.93 102.79C163.93 102.72 163.93 102.66 164 102.6C164.33 101.7 164.66 100.78 165.06 99.9099C165.06 99.9099 165.16 99.9099 165.15 99.9099C164.958 100.863 164.67 101.795 164.29 102.69C164.11 103.12 163.94 103.54 163.75 103.96C163.63 104.73 163.49 105.49 163.34 106.25C163.04 107.68 161.69 113.76 161.34 114.79C161.28 115 161.02 114.95 161.04 114.71C161.11 113.59 162.24 107.26 162.47 105.82C162.917 103.039 163.514 100.285 164.26 97.5699C164.31 97.5199 164.41 97.5598 164.4 97.6098Z" fill="#263238"/>
<path d="M154 143.08C151.33 144.45 147.89 146.58 132.39 143.53C131.39 143.33 130.45 143.09 129.47 142.8C114.94 138.44 97.4695 121.35 96.5195 120.14C96.5195 120.14 119.61 82.7098 149.14 70.9398C152.79 69.4898 158.83 72.2897 162.14 75.7797C163.33 77.0297 165.92 86.2198 164.93 93.6598C163.94 101.1 156.66 141.71 154 143.08Z" fill="#F5CF00"/>
<path d="M151.919 93.3203C152.031 94.902 151.809 96.4895 151.269 97.9803C151.142 96.3981 151.364 94.8074 151.919 93.3203V93.3203Z" fill="white"/>
<path d="M141.849 118.811C141.913 119.598 141.886 120.39 141.769 121.171C141.673 121.957 141.482 122.73 141.199 123.471C141.13 122.68 141.157 121.884 141.279 121.101C141.382 120.318 141.573 119.55 141.849 118.811V118.811Z" fill="white"/>
<path d="M124.739 99.541C124.851 101.126 124.63 102.717 124.089 104.211C123.963 102.626 124.185 101.032 124.739 99.541V99.541Z" fill="white"/>
<path d="M158.509 117.51C158.573 118.3 158.546 119.095 158.429 119.88C158.333 120.667 158.142 121.439 157.859 122.18C157.791 121.389 157.817 120.594 157.939 119.81C158.041 119.024 158.232 118.252 158.509 117.51V117.51Z" fill="white"/>
<path d="M136.539 96.2403C137.326 96.1734 138.118 96.1969 138.899 96.3103C139.686 96.4101 140.459 96.6048 141.199 96.8903C139.617 97.0039 138.029 96.7824 136.539 96.2403V96.2403Z" fill="white"/>
<path d="M117.119 114.651C118.701 114.54 120.288 114.761 121.779 115.301C120.197 115.428 118.606 115.206 117.119 114.651V114.651Z" fill="white"/>
<path d="M140 134.58C141.582 134.466 143.17 134.688 144.66 135.23C143.078 135.355 141.488 135.133 140 134.58V134.58Z" fill="white"/>
<path d="M111.129 127.341C112.711 127.229 114.298 127.451 115.789 127.991C114.207 128.115 112.616 127.894 111.129 127.341V127.341Z" fill="white"/>
<path d="M151.77 75.4011C153.351 75.2896 154.939 75.5111 156.43 76.0511C154.848 76.1626 153.26 75.9412 151.77 75.4011V75.4011Z" fill="white"/>
<path d="M146.12 81.7812C145.615 82.389 145.037 82.933 144.4 83.4012C143.781 83.8804 143.11 84.2896 142.4 84.6212C142.903 84.0174 143.473 83.4738 144.1 83.0013C144.726 82.5203 145.404 82.111 146.12 81.7812V81.7812Z" fill="white"/>
<path d="M115.33 99.9102C114.818 100.513 114.237 101.053 113.6 101.52C112.986 102.008 112.314 102.418 111.6 102.74C112.114 102.14 112.694 101.6 113.33 101.13C113.944 100.644 114.616 100.234 115.33 99.9102V99.9102Z" fill="white"/>
<path d="M153.779 108.09C153.267 108.695 152.687 109.239 152.049 109.71C151.434 110.196 150.762 110.606 150.049 110.93C150.56 110.324 151.141 109.781 151.779 109.31C152.397 108.829 153.068 108.419 153.779 108.09Z" fill="white"/>
<path d="M128.88 123.77C128.369 124.375 127.788 124.919 127.15 125.39C126.535 125.874 125.863 126.284 125.15 126.61C125.662 126.004 126.243 125.46 126.88 124.99C127.499 124.508 128.17 124.099 128.88 123.77Z" fill="white"/>
<path d="M163.32 86.6699C162.808 87.2755 162.228 87.8192 161.59 88.2899C160.97 88.7691 160.299 89.1783 159.59 89.5099C160.101 88.9043 160.682 88.3607 161.32 87.8899C161.936 87.4052 162.607 86.9957 163.32 86.6699V86.6699Z" fill="white"/>
<path d="M162.799 104.841C162.193 104.33 161.65 103.749 161.179 103.111C160.692 102.497 160.283 101.825 159.959 101.111C160.567 101.617 161.111 102.194 161.579 102.831C162.057 103.456 162.466 104.129 162.799 104.841V104.841Z" fill="white"/>
<path d="M107.299 117.361C106.693 116.849 106.15 116.269 105.679 115.631C105.198 115.013 104.788 114.342 104.459 113.631C105.065 114.142 105.608 114.723 106.079 115.361C106.564 115.977 106.973 116.648 107.299 117.361V117.361Z" fill="white"/>
<path d="M156.049 132.251C155.441 131.746 154.897 131.168 154.429 130.531C153.95 129.912 153.541 129.241 153.209 128.531C153.815 129.043 154.358 129.623 154.829 130.261C155.312 130.875 155.721 131.543 156.049 132.251Z" fill="white"/>
<path d="M131.619 89.8001C131.014 89.292 130.47 88.7148 129.999 88.0801C129.522 87.459 129.113 86.7885 128.779 86.0801C129.387 86.5856 129.931 87.1632 130.399 87.8001C130.876 88.4211 131.285 89.0916 131.619 89.8001V89.8001Z" fill="white"/>
<path d="M132.049 140.73C131.443 140.218 130.9 139.638 130.429 139C129.949 138.381 129.54 137.71 129.209 137C129.817 137.506 130.361 138.083 130.829 138.72C131.31 139.342 131.719 140.016 132.049 140.73V140.73Z" fill="white"/>
<path d="M136.199 110.691C135.599 110.177 135.059 109.596 134.589 108.961C134.101 108.348 133.691 107.676 133.369 106.961C133.972 107.473 134.512 108.053 134.979 108.691C135.465 109.306 135.875 109.977 136.199 110.691V110.691Z" fill="white"/>
<path d="M156.731 85.7498C152.961 85.0498 149.421 77.2598 148.971 72.0198C148.971 71.6598 150.731 68.8098 152.741 65.2398C153.961 63.0698 155.251 60.6198 156.281 58.2998C156.491 57.8298 157.721 59.4198 157.721 59.4198L160.401 61.4198L169.251 68.2098C167.143 70.7386 165.353 73.516 163.921 76.4798C163.779 76.8009 163.672 77.1361 163.601 77.4798C163.597 77.5364 163.597 77.5932 163.601 77.6498C163.051 79.6298 160.361 86.4198 156.731 85.7498Z" fill="#EB9481"/>
<path d="M163.6 77.5298C163.596 77.5864 163.596 77.6432 163.6 77.6998C163.075 77.5458 162.563 77.3484 162.07 77.1098C152.38 72.5698 156.65 59.5898 156.65 59.5898L160.45 61.4698L169.3 68.2598C167.193 70.7887 165.403 73.566 163.97 76.5298C163.811 76.849 163.687 77.1843 163.6 77.5298V77.5298Z" fill="#263238"/>
<path d="M179.42 40.5801C179.42 40.5801 183.85 43.3901 183.87 48.3901C183.89 53.3901 181.87 58.2801 181.45 58.4601C181.03 58.6401 179.42 40.5801 179.42 40.5801Z" fill="#263238"/>
<path d="M157.44 43.18C154.78 48.43 154.92 64.98 158.24 69.24C163.06 75.42 172.34 77.55 177.95 71.44C183.38 65.52 182.82 43.96 178.95 39.94C173.32 34 161.38 35.41 157.44 43.18Z" fill="#EB9481"/>
<path d="M171.56 56.4297C171.56 56.4297 171.47 56.4897 171.48 56.5297C171.54 57.6597 171.42 58.9597 170.41 59.3597C170.41 59.3597 170.41 59.4297 170.41 59.4197C171.66 59.2197 171.8 57.4897 171.56 56.4297Z" fill="#263238"/>
<path d="M170.53 55.2813C168.71 55.1813 168.65 58.8213 170.34 58.9113C172.03 59.0013 172.05 55.3613 170.53 55.2813Z" fill="#263238"/>
<path d="M177.731 56.3906C177.731 56.3906 177.821 56.3906 177.821 56.4906C177.761 57.6206 177.891 58.9206 178.911 59.3106C178.911 59.3106 178.911 59.3806 178.911 59.3706C177.651 59.1806 177.501 57.4506 177.731 56.3906Z" fill="#263238"/>
<path d="M178.76 55.231C180.57 55.121 180.66 58.761 178.98 58.861C177.3 58.961 177.24 55.321 178.76 55.231Z" fill="#263238"/>
<path d="M169.39 52.5107C169.868 52.3747 170.339 52.2145 170.8 52.0307C171.326 51.9356 171.804 51.6682 172.16 51.2707C172.247 51.1251 172.283 50.9551 172.263 50.787C172.243 50.6189 172.168 50.462 172.05 50.3407C171.78 50.1349 171.459 50.0052 171.122 49.9647C170.784 49.9243 170.442 49.9747 170.13 50.1107C169.455 50.2913 168.871 50.7152 168.49 51.3007C168.414 51.4399 168.38 51.5981 168.391 51.7564C168.402 51.9148 168.458 52.0666 168.553 52.194C168.647 52.3213 168.777 52.4188 168.925 52.475C169.074 52.5311 169.235 52.5435 169.39 52.5107V52.5107Z" fill="#263238"/>
<path d="M180.001 54.1199C179.514 54.0112 179.034 53.8777 178.561 53.7199C178.034 53.6502 177.545 53.4075 177.171 53.0299C177.074 52.8909 177.028 52.7233 177.039 52.5545C177.05 52.3856 177.117 52.2255 177.231 52.0999C177.489 51.8794 177.801 51.7324 178.135 51.6744C178.47 51.6163 178.813 51.6493 179.131 51.7699C179.815 51.9117 180.421 52.304 180.831 52.8699C180.916 53.0039 180.961 53.1598 180.96 53.3188C180.959 53.4778 180.911 53.633 180.823 53.7654C180.735 53.8979 180.611 54.0019 180.465 54.0649C180.318 54.1278 180.157 54.1469 180.001 54.1199V54.1199Z" fill="#263238"/>
<path d="M168.999 67.1199C169.269 67.3899 169.529 67.7499 169.939 67.7899C170.36 67.7897 170.775 67.7011 171.159 67.5299C171.159 67.5299 171.229 67.5299 171.159 67.5899C170.996 67.8097 170.775 67.9807 170.521 68.0847C170.268 68.1886 169.99 68.2215 169.719 68.1799C169.491 68.1176 169.286 67.9896 169.129 67.8119C168.973 67.6341 168.872 67.4144 168.839 67.1799C168.831 67.1587 168.832 67.1352 168.842 67.1145C168.851 67.0939 168.868 67.0778 168.889 67.0699C168.911 67.0619 168.934 67.0627 168.955 67.0721C168.975 67.0815 168.991 67.0987 168.999 67.1199Z" fill="#263238"/>
<path d="M175.539 62.3C175.539 62.3 175.589 63.98 175.539 64.77C174.003 64.6069 172.451 64.6608 170.929 64.93C170.569 65.01 170.609 64.72 171.019 64.53C172.245 63.9698 173.61 63.7887 174.939 64.01C175.019 63.8 174.809 61.41 174.939 61.42C175.544 61.5387 176.13 61.7407 176.679 62.02C176.679 58.5 176.119 55.02 176.169 51.5C176.169 51.38 176.359 51.36 176.379 51.5C177.09 55.2237 177.425 59.0094 177.379 62.8C177.389 63.23 175.839 62.46 175.539 62.3Z" fill="#263238"/>
<path d="M173.29 64.171C172.891 65.2195 172.152 66.1036 171.19 66.681C169.68 67.291 169.19 65.921 170.71 64.681C171.507 64.2781 172.4 64.1017 173.29 64.171Z" fill="#263238"/>
<path d="M171.719 66.3698C171.559 66.4998 171.38 66.6043 171.189 66.6798C169.799 67.2398 169.249 66.1298 170.369 65.0098C171.129 65.0698 171.999 65.3498 171.719 66.3698Z" fill="#FF99BA"/>
<path d="M156.68 57.3305C158.51 57.8905 160.61 52.3905 161.21 50.3305C161.73 48.4705 162.33 42.5605 162.42 42.1505C162.51 41.7405 170.42 47.3805 175 46.0405C179.58 44.7005 182.69 40.5505 182.76 38.6205C182.83 36.6905 177.1 31.7905 172.15 31.5405C167.2 31.2905 160.49 37.5405 160.49 37.5405C161.3 36.6207 162.036 35.6376 162.69 34.6005C162.61 34.3805 159.41 35.6605 158.82 37.9405C158.82 37.9405 159.46 35.0705 159.22 35.0205C158.98 34.9705 156.49 37.4205 157.05 39.2805C157.05 39.2805 154.17 41.7705 153.91 44.5005C153.65 47.2305 154.53 56.6705 156.68 57.3305Z" fill="#263238"/>
<path d="M178.281 45C176.918 45.7386 175.452 46.2646 173.931 46.56C172.223 46.7123 170.505 46.4374 168.931 45.76C167.344 45.1473 165.871 44.2754 164.571 43.18C163.421 42.24 162.391 41.09 161.161 40.25C160.851 40.03 160.501 40.48 160.691 40.76C162.743 43.6586 165.674 45.8187 169.051 46.92C170.619 47.4313 172.293 47.5269 173.909 47.1973C175.525 46.8678 177.028 46.1245 178.271 45.04C178.271 45.04 178.301 45 178.281 45Z" fill="#263238"/>
<path d="M158.59 56.8398C158.59 56.8398 155.75 51.0798 153.19 52.0098C150.63 52.9398 152.19 60.9098 154.82 62.3698C155.142 62.5782 155.503 62.7195 155.881 62.785C156.259 62.8506 156.647 62.8391 157.02 62.7514C157.394 62.6636 157.746 62.5013 158.055 62.2742C158.364 62.0471 158.624 61.7599 158.82 61.4298L158.59 56.8398Z" fill="#EB9481"/>
<path d="M153.7 54.2812C153.7 54.2812 153.64 54.2813 153.7 54.3613C155.52 55.4413 156.26 57.3613 156.7 59.3613C156.618 59.1495 156.49 58.9583 156.326 58.8009C156.162 58.6434 155.966 58.5234 155.751 58.4493C155.536 58.3751 155.307 58.3485 155.081 58.3713C154.855 58.3941 154.636 58.4657 154.441 58.5813C154.381 58.5813 154.441 58.6913 154.441 58.6913C154.798 58.6356 155.164 58.6923 155.489 58.8535C155.813 59.0147 156.079 59.2724 156.25 59.5912C156.537 60.1252 156.765 60.6885 156.93 61.2712C156.99 61.4612 157.32 61.4112 157.29 61.2012C157.72 58.7112 156.32 54.9413 153.7 54.2812Z" fill="#263238"/>
<path d="M139.84 82.5597C137.84 93.8897 150.12 132.06 157.99 139.19C169.7 149.79 191.35 156.76 199.2 159.03C202.62 160.03 212.08 135.96 208.62 134.37C201.21 131 178.19 123.8 176 122C173.81 120.2 160.61 101.13 154.73 90.1497C146.86 75.3697 140.83 76.8297 139.84 82.5597Z" fill="#EB9481"/>
<path d="M202.79 132.25C202.79 132.25 213.01 134.86 219.6 136.87C223.28 138 229.42 140.49 231.75 142.55C235.23 145.64 247.81 160.76 244.21 163.89C240.95 166.73 231.79 152.36 231.79 152.36C231.79 152.36 242.31 166.04 237.79 168.73C233.27 171.42 225 153.81 225 153.81C225 153.81 235.49 168.11 230.36 170.14C226.48 171.67 218.16 156.14 218.16 156.14C218.16 156.14 227.1 168.49 223.16 170.24C218.82 172.18 210.25 158.32 210.25 158.32C199.53 161.09 193.25 158.02 189.12 155.32C188.15 154.66 202.79 132.25 202.79 132.25Z" fill="#EB9481"/>
<path d="M228.449 147.39C229.749 148.95 231.069 150.53 232.219 152.2C233.369 153.87 234.459 155.59 235.449 157.36C236.79 159.649 237.864 162.085 238.649 164.62C236.929 160.22 232.899 154.17 231.749 152.5C230.599 150.83 229.529 149.1 228.389 147.43C228.359 147.39 228.419 147.35 228.449 147.39Z" fill="#263238"/>
<path d="M222.34 151.44C224.56 153.2 229.21 159.74 231 164.13C231.08 164.31 231 164.3 230.87 164.13C229.47 161.96 223.791 153.56 222.291 151.47C222.261 151.44 222.31 151.41 222.34 151.44Z" fill="#263238"/>
<path d="M216.47 154C219.228 156.893 221.407 160.288 222.89 164C222.96 164.18 222.82 164.15 222.71 164C220.64 160.63 219.04 158 216.36 154.09C216.32 154 216.41 153.91 216.47 154Z" fill="#263238"/>
<path d="M151.001 83.3899C141.871 70.4799 136.411 75.2599 138.241 89.2799C139.961 102.39 144.551 118.01 144.551 118.01L167.551 106.85C167.551 106.85 156.811 91.6599 151.001 83.3899Z" fill="#F5CF00"/>
<path d="M156.549 88.4707C156.852 89.1999 157.07 89.9616 157.199 90.7407C157.34 91.5224 157.39 92.3176 157.349 93.1107C157.049 92.3777 156.835 91.6127 156.709 90.8307C156.561 90.0534 156.507 89.2609 156.549 88.4707V88.4707Z" fill="white"/>
<path d="M142.92 96.3205C144.388 95.7235 145.967 95.4506 147.55 95.5205C146.82 95.8204 146.059 96.0351 145.28 96.1605C144.503 96.3089 143.71 96.3626 142.92 96.3205V96.3205Z" fill="white"/>
<path d="M143.509 76.2402C142.89 77.7017 141.966 79.0142 140.799 80.0902C141.418 78.6288 142.342 77.3162 143.509 76.2402V76.2402Z" fill="white"/>
<path d="M162.999 102.35C162.695 103.081 162.31 103.775 161.849 104.42C161.401 105.072 160.877 105.669 160.289 106.2C160.908 104.738 161.832 103.426 162.999 102.35V102.35Z" fill="white"/>
<path d="M147 110.181C146.267 109.881 145.572 109.495 144.93 109.031C144.278 108.583 143.68 108.059 143.15 107.471C144.612 108.09 145.924 109.014 147 110.181V110.181Z" fill="white"/>
<path d="M154 87.2812C155.23 88.9713 156.5 90.6213 157.76 92.2812C157.44 91.4413 157.16 90.5912 156.92 89.7312H156.98C157.23 90.3912 157.52 91.0412 157.76 91.7312L158.12 92.7312C158.151 92.7995 158.177 92.8697 158.2 92.9413C159.2 94.2313 160.2 95.5212 161.12 96.8412C162.25 98.4212 163.34 100.021 164.44 101.621C165.54 103.221 166.65 105.211 167.84 106.821C167.95 106.961 165.84 107.821 165.61 107.931C165.38 108.041 165.26 107.851 165.48 107.781C165.7 107.711 167.38 106.681 167.4 106.661C166.3 105.041 165.03 103.551 163.88 101.981C162.73 100.411 161.59 98.8413 160.48 97.2513C158.23 94.0113 156.17 90.6512 153.93 87.4012L154 87.2812Z" fill="#263238"/>
<path d="M138.779 98.5602C139.129 99.2402 139.509 99.9102 139.779 100.61L140.159 101.48C139.629 98.9902 139.159 96.4802 138.609 93.9902C139.669 97.9902 140.739 102.08 141.719 106.14C142.649 110.02 143.779 113.94 144.319 117.9C145.017 117.594 145.739 117.35 146.479 117.17C145.737 117.651 144.937 118.037 144.099 118.32C142.894 114.293 141.893 110.208 141.099 106.08C140.849 104.96 140.619 103.84 140.379 102.72C140.119 102.04 139.809 101.39 139.499 100.72C139.189 100.05 138.909 99.3002 138.629 98.5902C138.689 98.5502 138.759 98.5102 138.779 98.5602Z" fill="#263238"/>
<path d="M144.889 114.151C148.089 112.351 161.459 105.431 164.449 104.151C164.659 104.061 164.769 104.151 164.559 104.291C158.213 107.979 151.67 111.317 144.959 114.291C144.879 114.311 144.799 114.201 144.889 114.151Z" fill="#263238"/>
<path d="M511.321 377.051H206.641L250.691 127.201H555.371L511.321 377.051Z" fill="#F5CF00"/>
<path d="M354.969 101.32H255.259L250.689 127.2H357.399L354.969 101.32Z" fill="#F5CF00"/>
<g opacity="0.1">
<path d="M511.321 377.051H206.641L250.691 127.201H555.371L511.321 377.051Z" fill="black"/>
<path d="M354.971 101.32H255.261L250.691 127.2H357.401L354.971 101.32Z" fill="black"/>
</g>
<path d="M244.5 111.88C243.833 109.018 243.833 106.041 244.5 103.18C245.167 106.041 245.167 109.018 244.5 111.88V111.88Z" fill="#263238"/>
<path d="M235.639 114.44C234.621 113.384 233.744 112.201 233.029 110.92C232.28 109.666 231.692 108.322 231.279 106.92C232.3 107.97 233.178 109.15 233.889 110.43C234.637 111.689 235.225 113.036 235.639 114.44V114.44Z" fill="#263238"/>
<path d="M229.239 121.09C226.429 120.236 223.853 118.748 221.709 116.74C223.111 117.148 224.455 117.732 225.709 118.48C226.99 119.199 228.176 120.076 229.239 121.09V121.09Z" fill="#263238"/>
<path d="M226.999 130.051C224.137 130.718 221.161 130.718 218.299 130.051C221.161 129.384 224.137 129.384 226.999 130.051V130.051Z" fill="#263238"/>
<path d="M229.6 138.91C228.54 139.923 227.357 140.8 226.08 141.52C224.826 142.268 223.482 142.853 222.08 143.26C223.136 142.242 224.319 141.365 225.6 140.65C226.852 139.899 228.197 139.314 229.6 138.91V138.91Z" fill="#263238"/>
<path d="M236.241 145.301C235.389 148.115 233.901 150.695 231.891 152.841C232.298 151.437 232.886 150.092 233.641 148.841C234.353 147.555 235.227 146.366 236.241 145.301V145.301Z" fill="#263238"/>
<path d="M245.2 147.51C245.549 148.933 245.717 150.395 245.7 151.86C245.722 153.325 245.553 154.787 245.2 156.21C244.842 154.788 244.673 153.326 244.7 151.86C244.683 150.395 244.851 148.933 245.2 147.51V147.51Z" fill="#263238"/>
<path d="M254.061 145C255.079 146.056 255.956 147.239 256.671 148.52C257.422 149.773 258.007 151.117 258.411 152.52C256.4 150.375 254.912 147.795 254.061 144.98V145Z" fill="#263238"/>
<path d="M260.449 138.301C261.853 138.704 263.197 139.289 264.449 140.041C265.73 140.755 266.913 141.633 267.969 142.651C266.566 142.247 265.221 141.662 263.969 140.911C262.688 140.196 261.505 139.319 260.449 138.301V138.301Z" fill="#263238"/>
<path d="M262.66 129.34C265.525 128.673 268.505 128.673 271.37 129.34C268.505 130.006 265.525 130.006 262.66 129.34V129.34Z" fill="#263238"/>
<path d="M260.1 120.481C261.159 119.469 262.341 118.595 263.62 117.881C264.87 117.122 266.215 116.534 267.62 116.131C265.474 118.141 262.894 119.63 260.08 120.481H260.1Z" fill="#263238"/>
<path d="M253.449 114.09C253.861 112.69 254.445 111.346 255.189 110.09C255.904 108.809 256.781 107.626 257.799 106.57C257.395 107.974 256.811 109.318 256.059 110.57C255.345 111.851 254.467 113.034 253.449 114.09V114.09Z" fill="#263238"/>
<path d="M510.87 377.05H205.54L162.18 136.27H467.52L510.87 377.05Z" fill="#F5CF00"/>
<path d="M267.989 283.46C274.997 283.46 280.679 277.779 280.679 270.77C280.679 263.762 274.997 258.08 267.989 258.08C260.98 258.08 255.299 263.762 255.299 270.77C255.299 277.779 260.98 283.46 267.989 283.46Z" fill="#263238"/>
<path d="M368.309 283.46C375.318 283.46 380.999 277.779 380.999 270.77C380.999 263.762 375.318 258.08 368.309 258.08C361.301 258.08 355.619 263.762 355.619 270.77C355.619 277.779 361.301 283.46 368.309 283.46Z" fill="#263238"/>
<path d="M336.38 285.49L335.68 284.16C335.62 284.04 329.06 271.92 315.87 271.92C303.87 271.92 300.87 283.33 300.79 283.82L300.43 285.27L297.52 284.57L297.87 283.11C297.87 282.97 301.45 268.92 315.87 268.92C330.87 268.92 338.04 282.2 338.34 282.77L339.04 284.09L336.38 285.49Z" fill="#263238"/>
<path d="M490.71 269.8L490.5 268.8C491.15 268.66 491.79 268.51 492.43 268.34L492.68 269.34C492 269.51 491.37 269.66 490.71 269.8Z" fill="#263238"/>
<path d="M496.551 268.19L496.231 267.25C497.481 266.82 498.731 266.35 499.941 265.84L500.331 266.76C499.101 267.28 497.831 267.76 496.551 268.19ZM504.001 265L503.551 264.12C504.721 263.51 505.891 262.85 507.001 262.12L507.521 262.97C506.381 263.76 505.191 264.43 504.001 265ZM510.881 260.77L510.291 259.96C511.371 259.17 512.411 258.34 513.391 257.49L514.051 258.24C513.001 259.15 512.001 260 510.871 260.81L510.881 260.77ZM516.981 255.45L516.251 254.76C517.171 253.76 518.041 252.76 518.841 251.76L519.631 252.37C518.801 253.47 517.911 254.5 517.001 255.49L516.981 255.45ZM521.931 249.05L521.081 248.52C521.772 247.403 522.387 246.24 522.921 245.04L523.841 245.45C523.275 246.701 522.634 247.917 521.921 249.09L521.931 249.05ZM525.241 241.63L524.241 241.35C524.606 240.095 524.877 238.815 525.051 237.52L526.051 237.65C525.885 239.01 525.611 240.354 525.231 241.67L525.241 241.63ZM526.351 233.63H525.351V233.34C525.351 232.13 525.281 230.9 525.161 229.69L526.161 229.59C526.292 230.836 526.359 232.087 526.361 233.34L526.351 233.63ZM524.551 225.8C524.282 224.511 523.948 223.236 523.551 221.98L524.551 221.68C524.961 222.98 525.311 224.3 525.551 225.59L524.551 225.8ZM522.181 218.27C521.701 217.09 521.181 215.88 520.541 214.66L521.441 214.21C522.051 215.45 522.611 216.69 523.101 217.89L522.181 218.27ZM518.681 211.14C518.061 210.05 517.381 208.9 516.681 207.72L517.531 207.19C518.261 208.38 518.951 209.54 519.531 210.65L518.681 211.14ZM514.501 204.35C513.771 203.25 513.031 202.14 512.271 201.03L513.101 200.47C513.861 201.58 514.601 202.69 515.331 203.81L514.501 204.35ZM510.001 197.73C509.251 196.63 508.491 195.52 507.751 194.42L508.581 193.86C509.321 194.96 510.071 196.07 510.821 197.16L510.001 197.73ZM505.531 191.07C504.801 189.95 504.091 188.81 503.391 187.67L504.241 187.15C504.941 188.29 505.651 189.41 506.371 190.53L505.531 191.07ZM501.361 184.2C500.681 182.99 500.051 181.79 499.481 180.64L500.381 180.19C500.941 181.33 501.571 182.51 502.231 183.71L501.361 184.2ZM497.811 177C497.281 175.75 496.811 174.48 496.371 173.24L497.371 172.92C497.791 174.13 498.261 175.38 498.781 176.61L497.811 177ZM495.211 169.37C494.881 168.07 494.591 166.74 494.371 165.37L495.371 165.21C495.591 166.49 495.861 167.79 496.191 169.07L495.211 169.37ZM493.871 161.37C493.771 160.14 493.721 158.9 493.721 157.66V157.33H494.721V157.65C494.721 158.86 494.721 160.08 494.871 161.28L493.871 161.37ZM494.871 153.37L493.871 153.27C493.871 153 493.921 152.72 493.951 152.43C494.071 151.36 494.221 150.29 494.401 149.27L495.401 149.44C495.231 150.44 495.081 151.49 494.961 152.54C495.001 152.85 495.001 153.12 494.921 153.4L494.871 153.37ZM496.261 145.59L495.261 145.32C495.631 144 496.061 142.71 496.541 141.48L497.471 141.84C497.016 143.078 496.629 144.34 496.311 145.62L496.261 145.59ZM546.091 139.76C545.531 139.76 544.951 139.68 544.381 139.6C543.601 139.49 542.821 139.36 542.051 139.21L542.251 138.21C542.991 138.35 543.761 138.48 544.521 138.59C545.061 138.66 545.611 138.71 546.141 138.74L546.091 139.76ZM550.201 139.45L549.991 138.45C551.246 138.191 552.449 137.724 553.551 137.07L554.071 137.92C552.893 138.649 551.602 139.176 550.251 139.48L550.201 139.45ZM499.141 138.26L498.251 137.79C498.888 136.597 499.592 135.442 500.361 134.33L501.181 134.9C500.45 135.989 499.785 137.121 499.191 138.29L499.141 138.26ZM538.141 138.2C536.85 137.79 535.581 137.313 534.341 136.77L534.751 135.85C535.953 136.384 537.185 136.848 538.441 137.24L538.141 138.2ZM557.141 135.08L556.311 134.52C557.023 133.487 557.444 132.281 557.531 131.03L558.531 131.1C558.446 132.534 557.976 133.92 557.171 135.11L557.141 135.08ZM530.741 134.93C529.57 134.25 528.439 133.505 527.351 132.7L527.941 131.9C529 132.681 530.101 133.402 531.241 134.06L530.741 134.93ZM503.641 131.81L502.901 131.14C503.806 130.133 504.771 129.181 505.791 128.29L506.451 129.04C505.47 129.918 504.541 130.853 503.671 131.84L503.641 131.81ZM524.231 130.12C523.235 129.202 522.29 128.231 521.401 127.21L522.151 126.55C523.016 127.542 523.934 128.486 524.901 129.38L524.231 130.12ZM556.781 127.41C556.208 126.267 555.416 125.248 554.451 124.41L555.111 123.66C556.173 124.579 557.046 125.696 557.681 126.95L556.781 127.41ZM509.561 126.62L508.991 125.8C510.11 125.036 511.268 124.332 512.461 123.69L512.931 124.57C511.782 125.205 510.667 125.899 509.591 126.65L509.561 126.62ZM518.901 124.02C518.521 123.48 518.151 122.93 517.801 122.36L516.501 122.87L516.121 121.95L517.271 121.49C517.091 121.19 516.911 120.89 516.741 120.59L517.611 120.1C517.811 120.45 518.011 120.8 518.221 121.1C518.781 120.9 519.351 120.71 519.931 120.53L520.221 121.53C519.731 121.68 519.221 121.84 518.761 122.01C519.071 122.5 519.391 123.01 519.761 123.44L518.901 124.02ZM551.231 122.3C550.263 121.818 549.26 121.41 548.231 121.08L547.571 120.87L547.861 119.87L548.541 120.09C549.612 120.431 550.655 120.856 551.661 121.36L551.231 122.3ZM524.051 120.51L523.841 119.51C525.131 119.22 526.471 118.98 527.841 118.79L527.991 119.79C526.671 120 525.361 120.25 524.081 120.54L524.051 120.51ZM543.751 119.97C542.501 119.75 541.181 119.58 539.831 119.46L539.911 118.46C541.301 118.58 542.651 118.75 543.911 118.98L543.751 119.97ZM531.901 119.39L531.831 118.39C533.021 118.32 534.211 118.28 535.391 118.28H535.881V119.28H535.401C534.271 119.31 533.091 119.34 531.931 119.42L531.901 119.39ZM515.001 117C514.461 115.78 514.001 114.51 513.551 113.22L514.551 112.91C514.971 114.17 515.441 115.41 515.961 116.6L515.001 117ZM512.471 109.32C512.171 108.03 511.921 106.69 511.731 105.32L512.731 105.18C512.921 106.5 513.161 107.81 513.451 109.08L512.471 109.32ZM511.351 101.32C511.301 100.42 511.271 99.4998 511.271 98.5798C511.271 98.1498 511.271 97.7098 511.271 97.2798H512.271C512.271 97.7098 512.271 98.1298 512.271 98.5598C512.271 99.4598 512.271 100.37 512.341 101.24L511.351 101.32ZM512.541 93.3199L511.541 93.2198C511.681 91.8998 511.871 90.5498 512.101 89.2198L513.101 89.3898C512.831 90.7198 512.641 91.9998 512.511 93.3398L512.541 93.3199ZM513.911 85.5098L512.911 85.2699C513.231 83.9799 513.601 82.6799 514.011 81.3799L515.011 81.6898C514.561 82.9998 514.191 84.2698 513.881 85.5298L513.911 85.5098ZM516.311 77.9398L515.381 77.5798C515.871 76.3298 516.381 75.0798 516.991 73.8698L517.891 74.3098C517.291 75.5098 516.761 76.7298 516.281 77.9998L516.311 77.9398ZM519.751 70.8098L518.881 70.2999C519.561 69.1499 520.291 67.9998 521.051 66.8998L521.871 67.4698C521.091 68.5698 520.381 69.6898 519.721 70.8298L519.751 70.8098ZM524.261 64.2999L523.481 63.6698C524.321 62.6698 525.221 61.6098 526.151 60.6698L526.871 61.3598C525.931 62.2998 525.051 63.2998 524.231 64.3198L524.261 64.2999ZM529.701 58.5398L529.031 57.7999C530.031 56.9099 531.031 56.0298 532.101 55.1798L532.721 55.9698C531.651 56.8198 530.631 57.6898 529.671 58.5598L529.701 58.5398ZM535.911 53.5998L535.341 52.7698C536.431 52.0198 537.571 51.2798 538.731 50.5798L539.241 51.4298C538.081 52.1398 537.001 52.8699 535.881 53.6199L535.911 53.5998ZM542.701 49.4698L542.231 48.5898C543.411 47.9598 544.631 47.3599 545.851 46.7999L546.271 47.7098C545.001 48.2798 543.831 48.8798 542.671 49.4898L542.701 49.4698ZM549.931 46.1498L549.561 45.2098C550.821 44.7198 552.091 44.2098 553.351 43.8398L553.671 44.8398C552.401 45.2198 551.141 45.6798 549.901 46.1698L549.931 46.1498Z" fill="#263238"/>
<path d="M557.641 43.6202L557.391 42.6202C558.631 42.3002 559.391 42.1602 559.391 42.1602L559.571 43.1602C559.571 43.1602 558.851 43.3102 557.641 43.6202Z" fill="#263238"/>
<path d="M575.321 37.1601C572.771 29.2601 555.691 32.1001 559.021 42.4301C562.351 52.7601 577.871 45.0701 575.321 37.1601Z" fill="#263238"/>
<path d="M549.729 33.9996C549.859 30.5296 554.679 27.8596 561.499 29.0896C568.319 30.3196 574.729 34.9196 574.729 34.9196C574.729 34.9196 567.999 38.9996 561.109 39.7496C554.219 40.4996 549.599 37.4596 549.729 33.9996Z" fill="#EBEBEB"/>
<path d="M574.729 34.8991C571.189 34.8991 567.659 34.7991 564.129 34.6891C560.599 34.5791 557.059 34.3991 553.529 34.1191C557.069 34.1191 560.609 34.2091 564.139 34.3191C567.669 34.4291 571.209 34.6091 574.729 34.8991Z" fill="#263238"/>
<path d="M556.58 30.9102C558.59 31.8716 560.485 33.0557 562.23 34.4402C561.224 33.9682 560.249 33.4338 559.31 32.8401C558.363 32.2505 557.452 31.6061 556.58 30.9102V30.9102Z" fill="#263238"/>
<path d="M565.85 34.5703C564.041 36.0364 562.08 37.3037 560 38.3503C561.818 36.8824 563.79 35.6151 565.88 34.5703H565.85Z" fill="#263238"/>
<path d="M566.881 32.6191C567.89 33.1037 568.773 33.8157 569.461 34.6991C568.956 34.461 568.483 34.1621 568.051 33.8091C567.617 33.4584 567.224 33.0591 566.881 32.6191V32.6191Z" fill="#263238"/>
<path d="M556.231 54.5497C558.361 57.2897 563.831 56.6297 568.641 51.6497C573.451 46.6697 576.001 39.1797 576.001 39.1797C576.001 39.1797 568.121 39.7797 562.111 43.1797C556.101 46.5797 554.091 51.7997 556.231 54.5497Z" fill="#EBEBEB"/>
<path d="M576 39.1797C573.12 41.1797 570.32 43.3997 567.51 45.5497C564.7 47.6997 561.95 49.9197 559.26 52.2097C562.14 50.2097 564.94 47.9997 567.74 45.8497C570.54 43.6997 573.27 41.4797 576 39.1797Z" fill="#263238"/>
<path d="M563.58 52.9998C564.115 52.0285 564.592 51.0268 565.01 49.9998C565.436 48.9701 565.796 47.9147 566.09 46.8398C565.554 47.8104 565.076 48.8122 564.66 49.8398C564.239 50.8712 563.878 51.9263 563.58 52.9998Z" fill="#263238"/>
<path d="M569 44.6389C566.66 44.5139 564.314 44.6379 562 45.0089C563.166 45.0789 564.334 45.0789 565.5 45.0089C566.673 44.9517 567.841 44.8282 569 44.6389V44.6389Z" fill="#263238"/>
<path d="M570.93 45.6299C571.197 45.1361 571.405 44.6125 571.55 44.0699C571.698 43.5314 571.785 42.9779 571.81 42.4199C571.278 43.4099 570.977 44.5072 570.93 45.6299V45.6299Z" fill="#263238"/>
<path d="M575.319 37.16C574.754 37.3434 574.148 37.355 573.576 37.1935C573.005 37.032 572.494 36.7045 572.109 36.2526C571.724 35.8007 571.482 35.2446 571.413 34.6548C571.344 34.0651 571.452 33.4681 571.722 32.9396C571.993 32.411 572.414 31.9746 572.933 31.6857C573.452 31.3968 574.044 31.2683 574.636 31.3166C575.228 31.3648 575.792 31.5876 576.257 31.9567C576.723 32.3258 577.068 32.8246 577.249 33.39C577.492 34.1459 577.425 34.9671 577.063 35.6737C576.701 36.3804 576.074 36.9148 575.319 37.16Z" fill="#455A64"/>
<path d="M577.16 42.8699C576.595 43.0526 575.99 43.0638 575.419 42.9021C574.848 42.7404 574.338 42.4131 573.953 41.9616C573.568 41.5101 573.326 40.9547 573.257 40.3655C573.188 39.7763 573.295 39.1798 573.564 38.6514C573.834 38.123 574.255 37.6865 574.772 37.397C575.29 37.1076 575.882 36.9781 576.474 37.025C577.065 37.072 577.629 37.2932 578.095 37.6607C578.561 38.0283 578.907 38.5256 579.09 39.0899C579.212 39.4648 579.258 39.86 579.227 40.253C579.196 40.6459 579.087 41.0288 578.908 41.3798C578.729 41.7309 578.482 42.0432 578.182 42.2988C577.882 42.5545 577.535 42.7486 577.16 42.8699V42.8699Z" fill="#455A64"/>
<path d="M249.309 40.3207C248.83 44.9139 247.084 49.2835 244.266 52.9421C241.448 56.6006 237.668 59.4041 233.35 61.0397C229.031 62.6753 224.343 63.0787 219.808 62.2048C215.273 61.3309 211.071 59.2141 207.669 56.0907L195.199 57.9207L201.439 47.1407C200.012 43.6331 199.403 39.8464 199.659 36.0683C199.915 32.2901 201.028 28.6199 202.914 25.3364C204.8 22.0529 207.41 19.2425 210.545 17.1186C213.681 14.9948 217.258 13.6133 221.007 13.0792C224.756 12.5451 228.578 12.8724 232.181 14.0362C235.785 15.2 239.075 17.1698 241.804 19.7959C244.532 22.4219 246.626 25.6352 247.926 29.1916C249.227 32.7481 249.7 36.5542 249.309 40.3207V40.3207Z" fill="white"/>
<path d="M249.308 40.3204C248.839 44.9112 247.109 49.2826 244.308 52.9504C242.94 54.8055 241.29 56.4352 239.418 57.7804C237.588 59.1761 235.567 60.3041 233.418 61.1304C231.268 61.9771 229.009 62.5158 226.708 62.7304C225.558 62.8336 224.402 62.857 223.248 62.8004C222.091 62.7707 220.937 62.6503 219.798 62.4404C215.203 61.5948 210.933 59.486 207.468 56.3504L207.758 56.4404L195.308 58.3504L194.398 58.4904L194.858 57.6904L201.058 46.8904V47.3204C199.595 43.748 198.973 39.8871 199.24 36.036C199.507 32.1849 200.656 28.4467 202.598 25.1104C204.538 21.7846 207.205 18.9404 210.398 16.7904C213.587 14.669 217.215 13.2971 221.009 12.7775C224.804 12.2579 228.667 12.6042 232.308 13.7904C235.911 15.0162 239.195 17.032 241.918 19.6904C244.636 22.3422 246.714 25.5781 247.994 29.1526C249.275 32.7271 249.724 36.5463 249.308 40.3204ZM249.308 40.3204C249.713 36.5649 249.248 32.7667 247.951 29.2192C246.654 25.6716 244.559 22.4696 241.828 19.8603C239.097 17.251 235.803 15.3042 232.2 14.1703C228.597 13.0363 224.782 12.7456 221.048 13.3204C217.353 13.8674 213.832 15.2565 210.758 17.3804C207.711 19.521 205.166 22.2985 203.298 25.5204C201.46 28.7495 200.376 32.3529 200.128 36.0604C199.885 39.793 200.487 43.5325 201.888 47.0004L201.978 47.2204L201.858 47.4304L195.578 58.1904L195.138 57.5304L207.618 55.7804H207.788L207.908 55.8904C211.244 58.9954 215.379 61.111 219.848 62.0004C220.962 62.2274 222.093 62.3645 223.228 62.4104C224.364 62.4904 225.503 62.4904 226.638 62.4104C228.915 62.227 231.156 61.7324 233.298 60.9404C235.446 60.1587 237.467 59.0671 239.298 57.7004C241.162 56.366 242.814 54.7579 244.198 52.9304C247.035 49.2803 248.804 44.9153 249.308 40.3204Z" fill="#263238"/>
<path d="M212.338 49.3496C212.319 49.0185 212.368 48.6871 212.482 48.3757C212.596 48.0644 212.773 47.7799 213.002 47.5398C213.231 47.2998 213.507 47.1093 213.812 46.9803C214.118 46.8512 214.446 46.7863 214.778 46.7896C215.457 46.7896 216.108 47.0593 216.588 47.5394C217.068 48.0195 217.338 48.6707 217.338 49.3496C217.338 50.0286 217.068 50.6797 216.588 51.1598C216.108 51.6399 215.457 51.9096 214.778 51.9096C214.446 51.9129 214.118 51.848 213.812 51.719C213.507 51.5899 213.231 51.3994 213.002 51.1594C212.773 50.9193 212.596 50.6348 212.482 50.3235C212.368 50.0122 212.319 49.6807 212.338 49.3496V49.3496ZM213.338 43.4396L212.758 23.5996H216.758L216.178 43.4396H213.338Z" fill="#F5CF00"/>
<path d="M221.848 49.3496C221.829 49.0194 221.877 48.6887 221.991 48.3781C222.105 48.0675 222.281 47.7834 222.509 47.5435C222.736 47.3036 223.011 47.1129 223.315 46.9833C223.619 46.8536 223.947 46.7877 224.278 46.7896C224.957 46.7896 225.608 47.0593 226.088 47.5394C226.568 48.0195 226.838 48.6707 226.838 49.3496C226.838 50.0286 226.568 50.6797 226.088 51.1598C225.608 51.6399 224.957 51.9096 224.278 51.9096C223.947 51.9115 223.619 51.8456 223.315 51.716C223.011 51.5863 222.736 51.3956 222.509 51.1557C222.281 50.9158 222.105 50.6318 221.991 50.3211C221.877 50.0105 221.829 49.6798 221.848 49.3496V49.3496ZM222.848 43.4396L222.298 23.5996H226.298L225.718 43.4396H222.848Z" fill="#F5CF00"/>
<path d="M231.348 49.3496C231.329 49.0185 231.378 48.6871 231.492 48.3757C231.606 48.0644 231.783 47.7799 232.012 47.5398C232.241 47.2998 232.516 47.1093 232.822 46.9803C233.127 46.8512 233.456 46.7863 233.788 46.7896C234.467 46.7896 235.118 47.0593 235.598 47.5394C236.078 48.0195 236.348 48.6707 236.348 49.3496C236.348 50.0286 236.078 50.6797 235.598 51.1598C235.118 51.6399 234.467 51.9096 233.788 51.9096C233.456 51.9129 233.127 51.848 232.822 51.719C232.516 51.5899 232.241 51.3994 232.012 51.1594C231.783 50.9193 231.606 50.6348 231.492 50.3235C231.378 50.0122 231.329 49.6807 231.348 49.3496ZM232.348 43.4396L231.768 23.5996H235.768L235.198 43.4396H232.348Z" fill="#F5CF00"/>
</svg>
