<svg width="380" height="282" viewBox="0 0 380 282" fill="none" xmlns="http://www.w3.org/2000/svg">
<path d="M365.84 140.509C362.45 113.509 353.97 87.4394 343.84 68.7494C319.37 23.8394 251.2 -6.20061 199.84 1.56939C156.03 8.18939 134.98 48.1594 95.4796 62.0294C59.1396 74.7894 26.4196 84.6394 9.28964 118.309C-27.0004 189.429 61.7096 267.179 137.74 261.119C161.74 259.199 183.18 249.969 207.81 254.299C257.81 263.089 274.41 272.539 318.57 254.959C362.08 237.629 371.77 187.739 365.84 140.509Z" fill="#F5CF00"/>
<path opacity="0.8" d="M365.84 140.509C362.45 113.509 353.97 87.4394 343.84 68.7494C319.37 23.8394 251.2 -6.20061 199.84 1.56939C156.03 8.18939 134.98 48.1594 95.4796 62.0294C59.1396 74.7894 26.4196 84.6394 9.28964 118.309C-27.0004 189.429 61.7096 267.179 137.74 261.119C161.74 259.199 183.18 249.969 207.81 254.299C257.81 263.089 274.41 272.539 318.57 254.959C362.08 237.629 371.77 187.739 365.84 140.509Z" fill="white"/>
<path d="M190.91 276.43L148.26 180.93H251.61L379.06 265" fill="white"/>
<path d="M190.91 276.43L148.26 180.93H251.61L379.06 265" stroke="#263238" stroke-width="0.75" stroke-linecap="round" stroke-linejoin="round"/>
<path d="M180.33 272.67L148.26 187.3V180.93L193.63 280.88L180.33 272.67Z" fill="#263238" stroke="#263238" stroke-width="0.75" stroke-linecap="round" stroke-linejoin="round"/>
<path d="M207.349 184.879L251.309 236.409L197.949 248.839L167.629 191.239L207.349 184.879Z" fill="white" stroke="#263238" stroke-width="0.75" stroke-linecap="round" stroke-linejoin="round"/>
<path d="M197.949 248.838V250.358L250.399 239.748L251.309 236.408L197.949 248.838Z" fill="#263238" stroke="#263238" stroke-width="0.75" stroke-linecap="round" stroke-linejoin="round"/>
<path d="M205.689 203.419L207.939 206.739L213.659 205.189L211.279 201.949L205.689 203.419Z" fill="#263238"/>
<path d="M227.339 223.729L224.619 220.049L218.119 221.799L220.659 225.559L227.339 223.729Z" fill="#263238"/>
<path d="M201.02 196.499L202.69 198.979L208.07 197.609L206.38 195.309L201.02 196.499Z" fill="#263238"/>
<path d="M211.379 211.829L214.459 216.389L220.749 214.799L217.349 210.189L211.379 211.829Z" fill="#263238"/>
<path d="M227.669 213.969L222.279 215.339L224.979 218.999L230.469 217.519L227.669 213.969Z" fill="#263238"/>
<path d="M215.01 217.188L217.58 221.008L224.04 219.258L221.33 215.578L215.01 217.188Z" fill="#263238"/>
<path d="M194.93 197.849L196.59 200.529L201.75 199.209L200.06 196.709L194.93 197.849Z" fill="#263238"/>
<path d="M208.471 207.529L210.851 211.039L216.771 209.399L214.241 205.969L208.471 207.529Z" fill="#263238"/>
<path d="M203.23 199.769L205.15 202.619L210.69 201.159L208.65 198.389L203.23 199.769Z" fill="#263238"/>
<path d="M191.589 206.2L189.909 203.17L183.779 204.73L185.489 207.81L191.589 206.2Z" fill="#263238"/>
<path d="M182.78 213.529L186.99 212.399L185.04 208.879L180.9 209.969L182.78 213.529Z" fill="#263238"/>
<path d="M193.109 194.909L194.419 197.029L199.509 195.899L198.139 193.879L193.109 194.909Z" fill="#263238"/>
<path d="M189.45 202.34L187.83 199.42L181.6 200.79L183.32 203.9L189.45 202.34Z" fill="#263238"/>
<path d="M187.061 196.14L188.301 198.38L193.481 197.24L192.151 195.1L187.061 196.14Z" fill="#263238"/>
<path d="M178.349 205.17L182.409 204.13L180.669 201L176.619 201.89L178.349 205.17Z" fill="#263238"/>
<path d="M179.84 197.618L181.14 199.958L187.37 198.588L186.12 196.328L179.84 197.618Z" fill="#263238"/>
<path d="M199.41 205.08L201.51 208.47L207.01 206.99L204.76 203.67L199.41 205.08Z" fill="#263238"/>
<path d="M213.53 216.63L210.46 212.09L204.73 213.67L207.51 218.16L213.53 216.63Z" fill="#263238"/>
<path d="M188.76 199.209L190.36 202.109L195.66 200.759L193.99 198.059L188.76 199.209Z" fill="#263238"/>
<path d="M189.961 217.738L185.641 218.928L187.881 223.158L192.331 222.028L189.961 217.738Z" fill="#263238"/>
<path d="M202.01 209.279L204.23 212.859L209.92 211.299L207.55 207.779L202.01 209.279Z" fill="#263238"/>
<path d="M197.99 204.518L196.16 201.568L190.82 202.928L192.5 205.968L197.99 204.518Z" fill="#263238"/>
<path d="M208.02 235.869L201.91 237.429L204.09 241.359L210.22 239.849L208.02 235.869Z" fill="#263238"/>
<path d="M198.56 192.868L203.79 191.798L200.98 187.979L195.83 188.828L198.56 192.868Z" fill="#263238"/>
<path d="M185.661 195.5L183.131 190.93L176.721 191.99L179.381 196.79L185.661 195.5Z" fill="#263238"/>
<path d="M193.979 210.51L192.049 207.02L185.949 208.63L187.899 212.15L193.979 210.51Z" fill="#263238"/>
<path d="M209.55 223.179L207.09 219.209L200.73 220.829L203.01 224.949L209.55 223.179Z" fill="#263238"/>
<path d="M206.59 218.4L203.81 213.92L197.82 215.57L200.27 220L206.59 218.4Z" fill="#263238"/>
<path d="M216.65 221.26L214.07 217.43L208.01 218.97L210.47 222.93L216.65 221.26Z" fill="#263238"/>
<path d="M200.589 208.718L198.489 205.318L192.949 206.788L194.879 210.258L200.589 208.718Z" fill="#263238"/>
<path d="M197.09 201.34L198.91 204.27L204.22 202.87L202.29 200.01L197.09 201.34Z" fill="#263238"/>
<path d="M203.31 213.119L201.09 209.529L195.33 211.079L197.37 214.759L203.31 213.119Z" fill="#263238"/>
<path d="M219.741 225.819L217.191 222.059L210.971 223.739L213.341 227.569L219.741 225.819Z" fill="#263238"/>
<path d="M215.63 232.989L212.92 228.619L206.08 230.499L208.48 234.809L215.63 232.989Z" fill="#263238"/>
<path d="M195.13 227.08L192.79 222.85L188.32 223.99L190.6 228.31L195.13 227.08Z" fill="#263238"/>
<path d="M187.451 213.219L183.221 214.359L185.211 218.109L189.501 216.929L187.451 213.219Z" fill="#263238"/>
<path d="M207.559 235.048L205.179 230.738L199.119 232.398L201.449 236.598L207.559 235.048Z" fill="#263238"/>
<path d="M196.46 214.998L194.43 211.328L188.35 212.968L190.41 216.678L196.46 214.998Z" fill="#263238"/>
<path d="M199.109 193.68L200.469 195.69L205.789 194.51L204.379 192.6L199.109 193.68Z" fill="#263238"/>
<path d="M176.181 201.059L180.211 200.169L178.911 197.809L174.891 198.629L176.181 201.059Z" fill="#263238"/>
<path d="M192.589 194.078L197.589 193.058L194.839 188.988L189.939 189.798L192.589 194.078Z" fill="#263238"/>
<path d="M186.6 195.309L191.65 194.279L188.97 189.959L184.08 190.769L186.6 195.309Z" fill="#263238"/>
<path d="M184.589 208.059L182.869 204.959L178.789 205.999L180.459 209.139L184.589 208.059Z" fill="#263238"/>
<path d="M204.77 191.598L209.29 190.668L206.45 187.078L201.98 187.808L204.77 191.598Z" fill="#263238"/>
<path d="M178.439 196.979L175.759 192.139L171.799 192.799L174.449 197.789L178.439 196.979Z" fill="#263238"/>
<path d="M200.999 237.658L196.199 238.878L198.279 242.798L203.179 241.588L200.999 237.658Z" fill="#263238"/>
<path d="M223.809 231.84L217.049 233.56L219.519 237.55L226.499 235.82L223.809 231.84Z" fill="#263238"/>
<path d="M216.13 233.799L208.93 235.629L211.14 239.619L218.59 237.779L216.13 233.799Z" fill="#263238"/>
<path d="M231.81 229.799L224.75 231.599L227.44 235.589L234.75 233.779L231.81 229.799Z" fill="#263238"/>
<path d="M238.76 228.029L232.76 229.559L235.71 233.549L241.91 232.009L238.76 228.029Z" fill="#263238"/>
<path d="M198.22 232.648L193.57 233.918L195.76 238.058L200.54 236.838L198.22 232.648Z" fill="#263238"/>
<path d="M212.421 227.818L210.051 223.988L203.471 225.768L205.631 229.678L212.421 227.818Z" fill="#263238"/>
<path d="M223.27 231.039L220.27 226.609L213.84 228.369L216.55 232.749L223.27 231.039Z" fill="#263238"/>
<path d="M204.73 229.92L202.56 226.01L196.49 227.66L198.67 231.58L204.73 229.92Z" fill="#263238"/>
<path d="M193.139 233.098L197.769 231.828L195.589 227.898L191.039 229.128L193.139 233.098Z" fill="#263238"/>
<path d="M199.359 220.238L196.919 215.818L190.859 217.488L193.239 221.788L199.359 220.238Z" fill="#263238"/>
<path d="M231.229 229.01L227.919 224.52L221.199 226.36L224.209 230.8L231.229 229.01Z" fill="#263238"/>
<path d="M202.109 225.189L199.819 221.059L193.699 222.619L196.039 226.839L202.109 225.189Z" fill="#263238"/>
<path d="M218.289 209.929L221.699 214.549L227.049 213.189L223.369 208.529L218.289 209.929Z" fill="#263238"/>
<path d="M211.639 200.909L216.379 199.659L214.249 196.969L209.609 198.149L211.639 200.909Z" fill="#263238"/>
<path d="M207.359 195.098L209.019 197.358L213.639 196.188L211.969 194.078L207.359 195.098Z" fill="#263238"/>
<path d="M238.139 227.249L234.559 222.699L228.859 224.259L232.179 228.769L238.139 227.249Z" fill="#263238"/>
<path d="M212.221 201.699L214.611 204.929L219.491 203.609L216.991 200.439L212.221 201.699Z" fill="#263238"/>
<path d="M225.561 219.789L228.281 223.479L233.951 221.929L231.081 218.299L225.561 219.789Z" fill="#263238"/>
<path d="M206.759 194.299L211.349 193.289L209.919 191.469L205.369 192.399L206.759 194.299Z" fill="#263238"/>
<path d="M217.709 209.149L222.759 207.749L220.109 204.389L215.189 205.719L217.709 209.149Z" fill="#263238"/>
<path d="M258.279 190.639V198.819C257.449 199.622 256.533 200.333 255.549 200.939C254.039 201.849 241.609 203.939 241.609 203.939L257.369 221.229C257.369 221.229 271.819 219.649 275.869 218.499C280.109 217.279 279.199 201.819 279.199 201.819L258.279 190.639Z" fill="white" stroke="#263238" stroke-width="0.75" stroke-linecap="round" stroke-linejoin="round"/>
<path d="M258.279 190.639V198.819C258.279 198.819 258.059 199.039 257.699 199.359L276.129 218.419C280.069 216.649 279.199 201.849 279.199 201.849L258.279 190.639Z" fill="#263238" stroke="#263238" stroke-width="0.75" stroke-linecap="round" stroke-linejoin="round"/>
<path d="M230.391 86.0391V172.749L296.481 224.889V90.8891L230.391 86.0391Z" fill="white" stroke="#263238" stroke-width="0.75" stroke-linecap="round" stroke-linejoin="round"/>
<path d="M234.939 90.5898V163.65L290.419 197.91V95.4398L234.939 90.5898Z" fill="#F5CF00" stroke="#263238" stroke-width="0.75" stroke-linecap="round" stroke-linejoin="round"/>
<path d="M303.15 90.8887H296.48V224.919H303.15V90.8887Z" fill="#263238" stroke="#263238" stroke-width="0.75" stroke-linecap="round" stroke-linejoin="round"/>
<path d="M238.58 95.1387L238.88 160.319L285.26 186.689V105.979L253.43 101.159L251.31 96.6487L238.58 95.1387Z" fill="white" stroke="#263238" stroke-width="0.75" stroke-linecap="round" stroke-linejoin="round"/>
<path d="M241.609 103.02V158.5L282.539 180.33V110.3L241.609 103.02Z" fill="#F5CF00" stroke="#263238" stroke-width="0.75" stroke-linecap="round" stroke-linejoin="round"/>
<path d="M265.549 157.171C271.323 155.232 273.839 147.209 271.167 139.251C268.495 131.293 261.647 126.413 255.872 128.352C250.097 130.291 247.582 138.315 250.254 146.273C252.926 154.231 259.774 159.11 265.549 157.171Z" fill="#263238"/>
<path d="M261.92 143.669L265.81 139.359C266.072 138.975 266.207 138.518 266.194 138.053C266.181 137.588 266.022 137.139 265.74 136.769C265.16 135.939 264.25 135.769 263.74 136.359L260 140.509L256.25 134.509C255.71 133.639 254.8 133.369 254.25 133.909C253.96 134.267 253.795 134.71 253.781 135.171C253.766 135.631 253.903 136.084 254.17 136.459L258.06 142.709L254.1 146.999C253.837 147.384 253.703 147.842 253.718 148.307C253.732 148.773 253.894 149.221 254.18 149.589C254.408 149.951 254.765 150.212 255.18 150.319C255.36 150.364 255.548 150.357 255.725 150.301C255.902 150.244 256.059 150.14 256.18 149.999L259.93 145.849L263.67 151.849C263.9 152.257 264.28 152.559 264.73 152.689C264.902 152.744 265.087 152.75 265.263 152.708C265.439 152.665 265.6 152.576 265.73 152.449C266.016 152.089 266.178 151.646 266.191 151.186C266.204 150.726 266.066 150.274 265.8 149.899L261.92 143.669Z" fill="white"/>
<path d="M248.879 121.818L271.799 128.548" stroke="#263238" stroke-width="0.75" stroke-linecap="round" stroke-linejoin="round"/>
<path d="M247.971 115.449L277.681 123.739" stroke="#263238" stroke-width="0.75" stroke-linecap="round" stroke-linejoin="round"/>
<path d="M268.45 258.31C268.45 258.31 253.96 259.65 248.6 263.94C243.24 268.23 247.26 270.38 252.35 271.72C257.44 273.06 280.25 270.91 283.2 267.96C286.15 265.01 283.2 257.77 268.45 258.31Z" fill="white" stroke="#263238" stroke-width="0.75" stroke-linecap="round" stroke-linejoin="round"/>
<path d="M283.199 267.999C283.769 267.431 284.123 266.681 284.199 265.879C277.709 265.559 269.199 267.439 261.469 269.879C258.86 270.71 256.21 271.407 253.529 271.969C260.269 272.779 280.439 270.719 283.199 267.999Z" fill="#263238" stroke="#263238" stroke-width="0.75" stroke-linecap="round" stroke-linejoin="round"/>
<path d="M217.08 99.1582L227.67 104.668" stroke="#263238" stroke-linecap="round" stroke-linejoin="round"/>
<path d="M211 96L214.15 97.64" stroke="#263238" stroke-linecap="round" stroke-linejoin="round"/>
<path d="M219.41 126.92L223 127.33" stroke="#263238" stroke-linecap="round" stroke-linejoin="round"/>
<path d="M205.67 125.328L215.35 126.448" stroke="#263238" stroke-linecap="round" stroke-linejoin="round"/>
<path d="M221.67 152.67L209.67 156" stroke="#263238" stroke-linecap="round" stroke-linejoin="round"/>
<path d="M206.18 6C200.504 6 194.955 7.68323 190.236 10.8368C185.516 13.9904 181.837 18.4727 179.665 23.717C177.493 28.9612 176.925 34.7318 178.032 40.2991C179.139 45.8663 181.873 50.9802 185.887 54.994C189.9 59.0077 195.014 61.7411 200.581 62.8485C206.149 63.9559 211.919 63.3876 217.164 61.2153C222.408 59.0431 226.89 55.3646 230.044 50.6449C233.197 45.9252 234.88 40.3763 234.88 34.7C234.88 27.0883 231.857 19.7883 226.474 14.406C221.092 9.02374 213.792 6 206.18 6V6ZM206.18 57.76C201.62 57.758 197.163 56.4039 193.372 53.8688C189.581 51.3338 186.627 47.7316 184.883 43.5177C183.139 39.3039 182.684 34.6676 183.575 30.1951C184.466 25.7225 186.663 21.6146 189.888 18.3906C193.114 15.1666 197.222 12.9713 201.695 12.0824C206.168 11.1934 210.804 11.6506 215.017 13.3963C219.231 15.1419 222.831 18.0976 225.365 21.8896C227.898 25.6816 229.25 30.1396 229.25 34.7C229.256 37.732 228.663 40.7353 227.505 43.5378C226.348 46.3402 224.649 48.8869 222.506 51.0318C220.363 53.1766 217.818 54.8777 215.017 56.0374C212.215 57.197 209.212 57.7926 206.18 57.79V57.76Z" fill="#263238"/>
<path d="M208.23 34.7305C208.24 35.1379 208.128 35.5391 207.909 35.8827C207.69 36.2263 207.374 36.4968 207 36.6597C206.626 36.8226 206.213 36.8703 205.812 36.797C205.411 36.7236 205.041 36.5324 204.749 36.2478C204.458 35.9632 204.257 35.5981 204.174 35.1992C204.091 34.8002 204.128 34.3855 204.282 34.008C204.436 33.6305 204.698 33.3073 205.036 33.0797C205.374 32.8522 205.773 32.7306 206.18 32.7305C206.715 32.7303 207.229 32.9394 207.612 33.3131C207.995 33.6868 208.217 34.1955 208.23 34.7305V34.7305Z" fill="#263238"/>
<path d="M199.311 45.1405L206.181 34.7305L217.791 44.3405" stroke="#263238" stroke-linecap="round" stroke-linejoin="round"/>
<path d="M53.8797 56.7298L50.4297 47.2999L52.2697 49.3698V46.1498L56.1797 52.1299L52.7297 30.7399L57.3297 42.4698L57.7897 32.1198L58.4797 35.5699L59.3997 23.8398L61.0097 41.7798L63.3097 35.5699L62.8497 43.6198L69.0597 25.2198L66.0697 48.2198L70.4397 44.9998L67.9097 49.1398L71.1297 46.8398L67.4597 57.4198L54.1097 57.6498" fill="#F5CF00"/>
<path d="M68.6409 79.9591H54.2609L50.3809 55.0391H72.5109L68.6409 79.9591Z" fill="#263238" stroke="#263238" stroke-linecap="round" stroke-linejoin="round"/>
<path d="M108.01 79.7891H35.4199V272.899H108.01V79.7891Z" fill="white" stroke="#263238" stroke-linecap="round" stroke-linejoin="round"/>
<path d="M103.071 86.1289H39.6406V132.639H103.071V86.1289Z" stroke="#263238" stroke-linecap="round" stroke-linejoin="round"/>
<path d="M84.0399 105.16H58.6699V113.62H84.0399V105.16Z" fill="#263238"/>
<path d="M103.071 140.4H39.6406V186.91H103.071V140.4Z" stroke="#263238" stroke-linecap="round" stroke-linejoin="round"/>
<path d="M84.0399 159.43H58.6699V167.89H84.0399V159.43Z" fill="#263238"/>
<path d="M103.071 194.66H39.6406V241.17H103.071V194.66Z" stroke="#263238" stroke-linecap="round" stroke-linejoin="round"/>
<path d="M84.0399 213.689H58.6699V222.149H84.0399V213.689Z" fill="#263238"/>
<path d="M115.789 261.88C115.789 261.88 152.169 245.81 171.729 244.6L185.999 276.13H78.2188L115.789 261.88Z" fill="#263238" stroke="#263238" stroke-width="0.75" stroke-linecap="round" stroke-linejoin="round"/>
<path d="M160.069 71.8984C160.069 71.8984 185.679 102.318 191.069 107.898C196.459 113.478 196.659 117.528 194.919 120.028C193.179 122.528 180.099 127.158 166.619 135.818C153.139 144.478 114.819 166.818 114.439 167.598C114.059 168.378 110.389 140.598 110.389 140.598L174.509 114.218L174.319 112.288L153.519 73.7784L160.069 71.8984Z" fill="white"/>
<path d="M184.719 116.798L154.999 73.3984L153.569 73.8185L174.369 112.328L174.559 114.258L110.439 140.638C110.439 140.638 110.509 141.118 110.609 141.928L114.789 151.518L184.719 116.798Z" fill="#F5CF00"/>
<path opacity="0.5" d="M184.719 116.798L154.999 73.3984L153.569 73.8185L174.369 112.328L174.559 114.258L110.439 140.638C110.439 140.638 110.509 141.118 110.609 141.928L114.789 151.518L184.719 116.798Z" fill="white"/>
<path d="M160.069 71.8984C160.069 71.8984 185.679 102.318 191.069 107.898C196.459 113.478 196.659 117.528 194.919 120.028C193.179 122.528 180.099 127.158 166.619 135.818C153.139 144.478 114.819 166.818 114.439 167.598C114.059 168.378 110.389 140.598 110.389 140.598L174.509 114.218L174.319 112.288L153.519 73.7784L160.069 71.8984Z" stroke="#263238" stroke-width="0.75" stroke-linecap="round" stroke-linejoin="round"/>
<path d="M139.659 58.6082C139.659 58.6082 136.579 55.9082 135.039 58.6082C133.499 61.3082 133.309 65.7282 134.269 66.1182C135.229 66.5082 139.079 65.9282 139.659 64.7682C140.239 63.6082 139.659 58.6082 139.659 58.6082Z" fill="white" stroke="#263238" stroke-width="0.75" stroke-linecap="round" stroke-linejoin="round"/>
<path d="M145.049 57.2585C145.049 57.2585 141.779 53.7985 139.659 55.1385C137.539 56.4785 138.119 63.8085 138.889 64.3885C139.659 64.9685 144.279 63.3885 144.889 62.4585C145.499 61.5285 145.049 57.2585 145.049 57.2585Z" fill="white" stroke="#263238" stroke-width="0.75" stroke-linecap="round" stroke-linejoin="round"/>
<path d="M152.369 57.4492C152.369 57.4492 149.479 53.4492 146.789 53.4492C144.099 53.4492 142.159 63.0792 143.129 63.8492C144.099 64.6192 150.439 63.6592 150.829 63.0792C151.446 61.2326 151.96 59.353 152.369 57.4492V57.4492Z" fill="white" stroke="#263238" stroke-width="0.75" stroke-linecap="round" stroke-linejoin="round"/>
<path d="M158 63.999C158 62.849 157.43 52.829 154 53.409C150.57 53.989 146.88 62.079 147.07 63.409C147.26 64.739 158 63.999 158 63.999Z" fill="white" stroke="#263238" stroke-width="0.75" stroke-linecap="round" stroke-linejoin="round"/>
<path d="M174.51 114.26C174.51 114.26 184.33 117.92 187.99 117.72Z" fill="white"/>
<path d="M174.51 114.26C174.51 114.26 184.33 117.92 187.99 117.72" stroke="#263238" stroke-width="0.75" stroke-linecap="round" stroke-linejoin="round"/>
<path d="M93.7594 276.389C104.219 274.629 117.619 267.439 121.609 258.389C118.609 242.699 114.819 220.599 114.819 207.079C114.819 184.359 120.819 171.459 118.089 156.079C115.359 140.699 109.619 130.669 103.459 126.619C103.459 126.619 94.0294 129.119 84.3994 138.169C74.7694 147.219 66.2995 162.779 62.9995 177.609C59.6995 192.439 55.2995 238.069 55.2995 250.009C55.2995 261.949 54.4395 276.769 54.4395 276.769C65.9695 276.769 77.4994 276.769 89.0294 276.769C90.6143 276.784 92.1973 276.657 93.7594 276.389V276.389Z" fill="white"/>
<path d="M121.609 258.378C115.749 263.378 89.3594 273.088 85.5094 273.948C81.6594 274.808 83.7994 266.668 89.7894 258.538C95.7794 250.408 82.5094 261.538 80.3694 262.388C78.2294 263.238 81.2294 246.548 81.2294 238.388C81.2294 230.228 88.9395 160.908 88.9395 160.908L103.489 134.358L108.489 131.358C107.093 129.502 105.404 127.884 103.489 126.568C103.489 126.568 94.0594 129.068 84.4294 138.118C74.7994 147.168 66.2995 162.778 62.9995 177.608C59.6995 192.438 55.2995 238.068 55.2995 250.008C55.2995 261.948 54.4395 276.768 54.4395 276.768C65.9695 276.768 77.4994 276.768 89.0294 276.768C90.6088 276.769 92.1851 276.629 93.7395 276.348C104.219 274.628 117.619 267.438 121.609 258.378Z" fill="#F5CF00"/>
<path opacity="0.5" d="M121.609 258.378C115.749 263.378 89.3594 273.088 85.5094 273.948C81.6594 274.808 83.7994 266.668 89.7894 258.538C95.7794 250.408 82.5094 261.538 80.3694 262.388C78.2294 263.238 81.2294 246.548 81.2294 238.388C81.2294 230.228 88.9395 160.908 88.9395 160.908L103.489 134.358L108.489 131.358C107.093 129.502 105.404 127.884 103.489 126.568C103.489 126.568 94.0594 129.068 84.4294 138.118C74.7994 147.168 66.2995 162.778 62.9995 177.608C59.6995 192.438 55.2995 238.068 55.2995 250.008C55.2995 261.948 54.4395 276.768 54.4395 276.768C65.9695 276.768 77.4994 276.768 89.0294 276.768C90.6088 276.769 92.1851 276.629 93.7395 276.348C104.219 274.628 117.619 267.438 121.609 258.378Z" fill="white"/>
<path d="M93.7594 276.389C104.219 274.629 117.619 267.439 121.609 258.389C118.609 242.699 114.819 220.599 114.819 207.079C114.819 184.359 120.819 171.459 118.089 156.079C115.359 140.699 109.619 130.669 103.459 126.619C103.459 126.619 94.0294 129.119 84.3994 138.169C74.7694 147.219 66.2995 162.779 62.9995 177.609C59.6995 192.439 55.2995 238.069 55.2995 250.009C55.2995 261.949 54.4395 276.769 54.4395 276.769C65.9695 276.769 77.4994 276.769 89.0294 276.769C90.6143 276.784 92.1973 276.657 93.7594 276.389V276.389Z" stroke="#263238" stroke-width="0.75" stroke-linecap="round" stroke-linejoin="round"/>
<path d="M102.898 130.158L119.438 160.278L120.328 176.798C120.328 176.798 124.938 165.018 122.888 157.328C120.838 149.638 102.898 130.158 102.898 130.158Z" fill="#263238" stroke="#263238" stroke-width="0.75" stroke-linecap="round" stroke-linejoin="round"/>
<path d="M120.319 176.808L115.709 246.518L120.839 260.868L124.429 232.158L121.349 174.748L120.319 176.808Z" fill="#263238" stroke="#263238" stroke-width="0.75" stroke-linecap="round" stroke-linejoin="round"/>
<path d="M115.779 101.93C115.779 101.93 116.359 109.44 116.939 113.1C117.519 116.76 108.469 127 108.469 127L121.559 146.83L136.389 135.28C136.389 135.28 157.389 133.74 159.299 132C161.209 130.26 161.229 111.21 161.229 111.21L166.229 108.32C166.229 108.32 161.609 88.3197 160.459 83.8597L159.299 79.4397C159.299 79.4397 166.039 77.1197 164.499 70.4397C162.959 63.7597 153.139 60.4397 143.319 61.9597C133.499 63.4797 130.999 67.1597 130.999 67.1597C130.999 67.1597 117.129 66.9697 109.239 73.5197C101.349 80.0697 106.159 90.4597 108.659 94.1197C110.786 96.937 113.17 99.5515 115.779 101.93V101.93Z" fill="white"/>
<path d="M139 128.829C135.15 124.119 139 106.139 142 97.1492C145 88.1592 137.72 84.3092 137.72 84.3092L159.58 80.5392L159.28 79.4092C160.758 78.8314 162.073 77.9011 163.11 76.6992L164.29 69.7492C162.29 63.4292 152.82 60.3892 143.29 61.8792C133.47 63.4192 130.97 67.0792 130.97 67.0792C130.97 67.0792 117.1 66.8892 109.21 73.4392C101.32 79.9892 106.13 90.3792 108.63 94.0392C110.753 96.8843 113.137 99.5257 115.75 101.929C115.75 101.929 116.33 109.439 116.91 113.099C117.49 116.759 108.47 126.999 108.47 126.999L121.56 146.829L136.39 135.279C136.39 135.279 152.39 134.099 157.75 132.649L159.3 131.999C159.3 131.999 142.87 133.539 139 128.829Z" fill="#F5CF00"/>
<path opacity="0.5" d="M139 128.829C135.15 124.119 139 106.139 142 97.1492C145 88.1592 137.72 84.3092 137.72 84.3092L159.58 80.5392L159.28 79.4092C160.758 78.8314 162.073 77.9011 163.11 76.6992L164.29 69.7492C162.29 63.4292 152.82 60.3892 143.29 61.8792C133.47 63.4192 130.97 67.0792 130.97 67.0792C130.97 67.0792 117.1 66.8892 109.21 73.4392C101.32 79.9892 106.13 90.3792 108.63 94.0392C110.753 96.8843 113.137 99.5257 115.75 101.929C115.75 101.929 116.33 109.439 116.91 113.099C117.49 116.759 108.47 126.999 108.47 126.999L121.56 146.829L136.39 135.279C136.39 135.279 152.39 134.099 157.75 132.649L159.3 131.999C159.3 131.999 142.87 133.539 139 128.829Z" fill="white"/>
<path d="M150.25 93.08C150.25 93.08 150.25 92.78 150.25 92.31C150.25 90.82 150.5 87.6 152.99 86.72C156.26 85.57 158.99 88.65 158.99 88.65L159.18 91.73C158.71 91.1419 158.091 90.6895 157.388 90.4189C156.686 90.1483 155.923 90.0693 155.18 90.19C153.266 90.5922 151.536 91.6067 150.25 93.08V93.08Z" fill="#263238"/>
<path d="M155.84 99.2396C155.84 100.83 155.4 102.13 154.84 102.13C154.28 102.13 153.84 100.83 153.84 99.2396C153.84 97.6496 154.27 96.3496 154.84 96.3496C155.41 96.3496 155.84 97.6396 155.84 99.2396Z" fill="#263238"/>
<path d="M149.77 119.409C148.7 120.519 147.27 120.879 146.58 120.219C145.89 119.559 146.2 118.109 147.27 116.999C148.34 115.889 149.76 115.529 150.45 116.189C151.14 116.849 150.84 118.299 149.77 119.409Z" fill="#263238"/>
<path d="M115.779 101.93C115.779 101.93 116.359 109.44 116.939 113.1C117.519 116.76 108.469 127 108.469 127L121.559 146.83L136.389 135.28C136.389 135.28 157.389 133.74 159.299 132C161.209 130.26 161.229 111.21 161.229 111.21L166.229 108.32C166.229 108.32 161.609 88.3197 160.459 83.8597L159.299 79.4397C159.299 79.4397 166.039 77.1197 164.499 70.4397C162.959 63.7597 153.139 60.4397 143.319 61.9597C133.499 63.4797 130.999 67.1597 130.999 67.1597C130.999 67.1597 117.129 66.9697 109.239 73.5197C101.349 80.0697 106.159 90.4597 108.659 94.1197C110.786 96.937 113.17 99.5515 115.779 101.93V101.93Z" stroke="#263238" stroke-width="0.75" stroke-linecap="round" stroke-linejoin="round"/>
<path d="M134.27 83.0584C137.74 80.7484 159.27 79.4084 159.27 79.4084C159.27 79.4084 166.01 77.0884 164.47 70.4084C162.93 63.7284 153.11 60.4084 143.29 61.9284C133.47 63.4484 130.97 67.1284 130.97 67.1284C130.97 67.1284 117.1 66.9384 109.21 73.4884C101.32 80.0384 106.13 90.4284 108.63 94.0884C110.753 96.9336 113.137 99.575 115.75 101.978C115.75 101.978 116.07 106.098 116.47 109.728L122.47 111.418L129.02 107.948L135.57 106.408C135.57 106.408 130.75 102.748 133.45 99.2884C136.15 95.8284 141.15 94.6684 141.34 91.9684C141.53 89.2684 130.8 85.3684 134.27 83.0584Z" fill="#263238" stroke="#263238" stroke-width="0.75" stroke-linecap="round" stroke-linejoin="round"/>
<path d="M155.289 71.8695C155.289 71.8695 153.029 67.7295 157.169 68.4795C161.309 69.2295 161.309 76.3895 157.919 77.8895C154.529 79.3895 136.089 76.0095 125.919 79.0195C115.749 82.0295 108.609 90.3095 108.609 90.3095" stroke="white" stroke-miterlimit="10" stroke-linecap="round"/>
<path d="M114.26 96.7089C114.26 96.7089 122.17 89.9389 128.56 88.8089C134.95 87.6789 138.35 87.6789 131.2 91.8089C124.05 95.9389 128.94 95.1889 133.46 93.6889" stroke="white" stroke-miterlimit="10" stroke-linecap="round"/>
<path d="M130.799 111.559C130.799 111.559 129.649 99.4292 123.679 99.0492C117.709 98.6692 117.899 107.329 119.679 113.299C121.459 119.269 125.679 121.189 129.109 118.109" fill="#F5CF00"/>
<g opacity="0.5">
<path d="M130.799 111.559C130.799 111.559 129.649 99.4292 123.679 99.0492C117.709 98.6692 117.899 107.329 119.679 113.299C121.459 119.269 125.679 121.189 129.109 118.109" fill="white"/>
<path d="M130.799 111.559C130.799 111.559 129.649 99.4292 123.679 99.0492C117.709 98.6692 117.899 107.329 119.679 113.299C121.459 119.269 125.679 121.189 129.109 118.109" stroke="#263238" stroke-width="0.75" stroke-linecap="round" stroke-linejoin="round"/>
</g>
<path d="M130.799 111.559C130.799 111.559 129.649 99.4292 123.679 99.0492C117.709 98.6692 117.899 107.329 119.679 113.299C121.459 119.269 125.679 121.189 129.109 118.109" stroke="#263238" stroke-width="0.75" stroke-linecap="round" stroke-linejoin="round"/>
<path d="M108.999 119.648L128.259 148.918L119.399 160.278C115.409 152.581 110.975 145.122 106.119 137.938C99.5688 128.698 98.7988 127.158 98.7988 127.158L108.999 119.648Z" fill="white"/>
<path d="M108.999 119.648L98.7988 127.158C98.7988 127.158 99.3688 128.288 103.569 134.318L114.349 127.778L108.999 119.648Z" fill="#F5CF00"/>
<path opacity="0.5" d="M108.999 119.648L98.7988 127.158C98.7988 127.158 99.3688 128.288 103.569 134.318L114.349 127.778L108.999 119.648Z" fill="white"/>
<path d="M108.999 119.648L128.259 148.918L119.399 160.278C115.409 152.581 110.975 145.122 106.119 137.938C99.5688 128.698 98.7988 127.158 98.7988 127.158L108.999 119.648Z" stroke="#263238" stroke-width="0.75" stroke-linecap="round" stroke-linejoin="round"/>
<path d="M158.529 192.439C158.529 192.439 161.609 186.079 162.189 182.039C162.769 177.999 162.959 175.679 165.269 173.759C167.579 171.839 175.089 164.129 176.269 161.239C177.449 158.349 178.189 161.049 178.769 163.359C179.349 165.669 179.149 167.789 177.229 169.139C175.876 170.143 174.648 171.304 173.569 172.599L175.299 173.949C175.299 173.949 199.369 164.899 201.879 163.949C204.389 162.999 206.689 163.749 206.879 165.679C207.069 167.609 206.309 167.799 205.149 168.379C203.989 168.959 191.289 173.379 189.549 174.149L187.819 174.919L189.169 176.269C189.169 176.269 196.099 176.079 199.569 175.889C203.039 175.699 208.229 175.119 208.999 176.269C209.343 176.783 209.474 177.411 209.366 178.02C209.258 178.629 208.919 179.173 208.419 179.539C208.014 179.927 207.527 180.218 206.994 180.391C206.46 180.565 205.895 180.615 205.339 180.539C203.609 180.539 188.779 181.689 188.779 181.689L189.169 183.809C189.169 183.809 204.959 186.309 205.529 187.079C206.099 187.849 206.109 188.239 205.529 189.389C204.949 190.539 204.529 190.549 203.029 190.549C201.529 190.549 189.029 188.619 189.029 188.619C189.029 188.619 195.189 192.089 195.959 192.669C196.729 193.249 199.419 193.669 198.649 194.979C197.879 196.289 197.499 196.709 196.339 196.519C195.179 196.329 186.909 192.669 186.909 192.669C186.909 192.669 178.629 193.819 175.909 194.019C173.907 194.111 171.901 194.045 169.909 193.819L162.209 198.819L158.529 192.439Z" fill="white" stroke="#263238" stroke-width="0.75" stroke-linecap="round" stroke-linejoin="round"/>
<path d="M103.85 183.768C103.85 183.768 98.2599 160.468 95.9499 155.268C93.6399 150.068 80.5499 145.268 74.1899 156.618C67.8299 167.968 73.6099 180.878 75.9299 190.118C78.2499 199.358 92.8699 241.118 94.9899 246.348C97.1099 251.578 100.99 250.348 103.08 249.818C105.17 249.288 163.73 202.058 163.73 202.058L159.11 191.668L113.67 214.998L103.85 183.768Z" fill="white"/>
<path d="M102.209 235C103.693 230.492 105.405 226.063 107.339 221.73C109.479 217.45 97.0694 231.58 94.4994 223.87C91.9294 216.16 75.6694 177.64 78.6594 164.8C79.9564 158.834 83.4469 153.573 88.4394 150.06C83.6694 148.93 77.8294 150.13 74.1894 156.63C67.8394 167.99 73.6094 180.89 75.9294 190.13C78.2494 199.37 92.8694 241.13 94.9894 246.36C97.1094 251.59 100.989 250.36 103.079 249.83C104.619 249.41 136.079 224.28 153.079 210.65L102.209 235Z" fill="#F5CF00"/>
<path opacity="0.5" d="M102.209 235C103.693 230.492 105.405 226.063 107.339 221.73C109.479 217.45 97.0694 231.58 94.4994 223.87C91.9294 216.16 75.6694 177.64 78.6594 164.8C79.9564 158.834 83.4469 153.573 88.4394 150.06C83.6694 148.93 77.8294 150.13 74.1894 156.63C67.8394 167.99 73.6094 180.89 75.9294 190.13C78.2494 199.37 92.8694 241.13 94.9894 246.36C97.1094 251.59 100.989 250.36 103.079 249.83C104.619 249.41 136.079 224.28 153.079 210.65L102.209 235Z" fill="white"/>
<path d="M103.85 183.768C103.85 183.768 98.2599 160.468 95.9499 155.268C93.6399 150.068 80.5499 145.268 74.1899 156.618C67.8299 167.968 73.6099 180.878 75.9299 190.118C78.2499 199.358 92.8699 241.118 94.9899 246.348C97.1099 251.578 100.99 250.348 103.08 249.818C105.17 249.288 163.73 202.058 163.73 202.058L159.11 191.668L113.67 214.998L103.85 183.768Z" stroke="#263238" stroke-width="0.75" stroke-linecap="round" stroke-linejoin="round"/>
<path d="M152.369 195.52L157.569 206.11" stroke="#263238" stroke-width="0.75" stroke-linecap="round" stroke-linejoin="round"/>
<path d="M30.2191 142.389L3.61914 160.839C3.61914 160.839 16.7291 174.699 15.3791 211.059C14.3791 238.829 18.0491 270.359 23.3791 276.769H51.6991C51.6991 276.769 41.9091 222.769 42.6091 191.829C43.1591 168.319 36.0991 151.999 30.2191 142.389Z" fill="white" stroke="#263238" stroke-width="0.75" stroke-linecap="round" stroke-linejoin="round"/>
<path d="M33.4184 142.389L6.81836 160.839C6.81836 160.839 19.9284 174.699 18.5684 211.059C17.5684 238.829 21.2384 270.359 26.5684 276.769H54.8984C54.8984 276.769 45.1184 222.769 45.8184 191.829C46.3484 168.319 39.2884 151.999 33.4184 142.389Z" fill="#263238" stroke="#263238" stroke-width="0.75" stroke-linecap="round" stroke-linejoin="round"/>
<path d="M30.2189 142.389H33.4189L6.81891 160.839H3.62891L30.2189 142.389Z" fill="white" stroke="#263238" stroke-width="0.75" stroke-linecap="round" stroke-linejoin="round"/>
</svg>
